<svg width="32" height="32" viewBox="0 0 32 32" fill="none" xmlns="http://www.w3.org/2000/svg">
<path fill-rule="evenodd" clip-rule="evenodd" d="M7.3741 5.95964C6.98357 5.56912 6.35041 5.56912 5.95989 5.95964C5.56936 6.35017 5.56936 6.98333 5.95989 7.37385L14.5859 15.9999L5.95989 24.626C5.56936 25.0165 5.56936 25.6497 5.95989 26.0402C6.35041 26.4307 6.98357 26.4307 7.3741 26.0402L16.0002 17.4141L24.6262 26.0402C25.0167 26.4307 25.6499 26.4307 26.0404 26.0402C26.4309 25.6497 26.4309 25.0165 26.0404 24.626L17.4144 15.9999L26.0404 7.37387C26.4309 6.98335 26.4309 6.35018 26.0404 5.95966C25.6499 5.56913 25.0167 5.56913 24.6262 5.95966L16.0002 14.5857L7.3741 5.95964Z" fill="white"/>
</svg>
