<svg width="34" height="34" viewBox="0 0 34 34" fill="none" xmlns="http://www.w3.org/2000/svg">
<path d="M17 1L17.7458 0.920598C17.7052 0.539276 17.3835 0.25 17 0.25C16.6165 0.25 16.2948 0.539275 16.2542 0.920597L17 1ZM1 17.1168V16.3668C0.594302 16.3668 0.262148 16.6894 0.250319 17.0949C0.238489 17.5005 0.551273 17.8419 0.956281 17.8655L1 17.1168ZM16.25 33C16.25 33.4142 16.5858 33.75 17 33.75C17.4142 33.75 17.75 33.4142 17.75 33H16.25ZM33 17.1168L33.0437 17.8655C33.4487 17.8419 33.7615 17.5005 33.7497 17.0949C33.7379 16.6894 33.4057 16.3668 33 16.3668V17.1168ZM17 1C16.2542 0.920597 16.2543 0.920339 16.2543 0.920142C16.2543 0.920158 16.2543 0.920021 16.2543 0.920052C16.2543 0.920113 16.2542 0.920417 16.2542 0.920961C16.2541 0.922049 16.2538 0.9241 16.2535 0.927097C16.2528 0.933091 16.2517 0.942871 16.2501 0.956314C16.2468 0.983201 16.2416 1.02473 16.2341 1.07992C16.2191 1.19032 16.1949 1.35528 16.159 1.56698C16.087 1.9906 15.9682 2.60017 15.7818 3.33349C15.4083 4.80316 14.7673 6.75395 13.6993 8.69716C11.5725 12.5668 7.78771 16.3668 1 16.3668V17.8668C8.49636 17.8668 12.7116 13.6084 15.0138 9.41965C16.1603 7.33366 16.841 5.25524 17.2356 3.70301C17.4333 2.92538 17.5601 2.27583 17.6378 1.81805C17.6767 1.58906 17.7033 1.40776 17.7204 1.28208C17.729 1.21923 17.7351 1.17026 17.7392 1.13615C17.7413 1.1191 17.7429 1.10576 17.7439 1.09627C17.7445 1.09152 17.7449 1.08773 17.7452 1.08491C17.7454 1.0835 17.7455 1.08234 17.7456 1.08142C17.7456 1.08096 17.7457 1.08046 17.7457 1.08023C17.7458 1.07978 17.7458 1.0794 17 1ZM1 17.1168C0.956281 17.8655 0.956001 17.8655 0.955782 17.8655C0.955789 17.8655 0.95563 17.8655 0.955644 17.8655C0.955674 17.8655 0.955943 17.8655 0.956451 17.8655C0.957468 17.8656 0.959438 17.8657 0.962348 17.8659C0.968168 17.8663 0.977742 17.867 0.990951 17.8679C1.01737 17.8699 1.05831 17.8731 1.1128 17.878C1.22181 17.8877 1.38492 17.9041 1.59438 17.9303C2.01353 17.9828 2.61696 18.0743 3.34298 18.2297C4.79828 18.5413 6.7288 19.1062 8.6511 20.1165C12.4663 22.1215 16.25 25.8677 16.25 33H17.75C17.75 25.1834 13.5337 20.988 9.34892 18.7887C7.27121 17.6967 5.20173 17.0937 3.65703 16.763C2.88304 16.5973 2.23647 16.499 1.78062 16.442C1.55258 16.4134 1.37194 16.3952 1.24657 16.3839C1.18388 16.3783 1.13497 16.3745 1.10085 16.372C1.08378 16.3707 1.07041 16.3698 1.06085 16.3692C1.05606 16.3688 1.05224 16.3686 1.04938 16.3684C1.04795 16.3683 1.04676 16.3683 1.04582 16.3682C1.04534 16.3682 1.04482 16.3681 1.04458 16.3681C1.04412 16.3681 1.04372 16.3681 1 17.1168ZM17 1C16.2542 1.0794 16.2543 1.07978 16.2543 1.08023C16.2543 1.08045 16.2544 1.08096 16.2544 1.08142C16.2545 1.08234 16.2547 1.0835 16.2548 1.08491C16.2551 1.08772 16.2556 1.09151 16.2561 1.09626C16.2572 1.10576 16.2587 1.1191 16.2608 1.13615C16.2649 1.17025 16.2711 1.21923 16.2796 1.28208C16.2967 1.40776 16.3233 1.58906 16.3622 1.81805C16.4399 2.27583 16.5668 2.92538 16.7644 3.70301C17.159 5.25524 17.8397 7.33366 18.9862 9.41965C21.2884 13.6084 25.5036 17.8668 33 17.8668V16.3668C26.2123 16.3668 22.4275 12.5668 20.3008 8.69716C19.2327 6.75395 18.5918 4.80316 18.2182 3.33349C18.0318 2.60017 17.913 1.9906 17.8411 1.56699C17.8051 1.35528 17.7809 1.19032 17.7659 1.07992C17.7584 1.02473 17.7532 0.983202 17.75 0.956315C17.7483 0.942872 17.7472 0.933093 17.7465 0.927098C17.7462 0.924101 17.746 0.922051 17.7458 0.920962C17.7458 0.920418 17.7457 0.920114 17.7457 0.920053C17.7457 0.920022 17.7458 0.920159 17.7458 0.920143C17.7458 0.92034 17.7458 0.920598 17 1ZM33 17.1168C32.9563 16.3681 32.9559 16.3681 32.9554 16.3681C32.9552 16.3681 32.9547 16.3682 32.9542 16.3682C32.9532 16.3683 32.9521 16.3683 32.9506 16.3684C32.9478 16.3686 32.9439 16.3688 32.9392 16.3692C32.9296 16.3698 32.9162 16.3707 32.8992 16.372C32.865 16.3745 32.8161 16.3783 32.7534 16.3839C32.6281 16.3952 32.4474 16.4134 32.2194 16.442C31.7635 16.499 31.117 16.5973 30.343 16.763C28.7983 17.0937 26.7288 17.6967 24.6511 18.7887C20.4663 20.988 16.25 25.1834 16.25 33H17.75C17.75 25.8677 21.5337 22.1215 25.3489 20.1165C27.2712 19.1062 29.2017 18.5413 30.657 18.2297C31.383 18.0743 31.9865 17.9828 32.4056 17.9303C32.6151 17.9041 32.7782 17.8877 32.8872 17.878C32.9417 17.8731 32.9826 17.8699 33.009 17.8679C33.0223 17.867 33.0318 17.8663 33.0377 17.8659C33.0406 17.8657 33.0425 17.8656 33.0435 17.8655C33.0441 17.8655 33.0443 17.8655 33.0444 17.8655C33.0444 17.8655 33.0442 17.8655 33.0442 17.8655C33.044 17.8655 33.0437 17.8655 33 17.1168Z" fill="#898989"/>
</svg>
