<svg width="16" height="16" viewBox="0 0 16 16" fill="none" xmlns="http://www.w3.org/2000/svg">
<path d="M6.42481 3.64648C6.22955 3.45122 5.91296 3.45122 5.7177 3.64648C5.52244 3.84174 5.52244 4.15833 5.7177 4.35359L6.42481 3.64648ZM10.3139 8.24268L10.6674 8.59623L11.021 8.24268L10.6674 7.88912L10.3139 8.24268ZM5.7177 12.1318C5.52244 12.327 5.52244 12.6436 5.7177 12.8389C5.91296 13.0341 6.22955 13.0341 6.42481 12.8389L5.7177 12.1318ZM5.7177 4.35359L9.96034 8.59623L10.6674 7.88912L6.42481 3.64648L5.7177 4.35359ZM9.96034 7.88912L5.7177 12.1318L6.42481 12.8389L10.6674 8.59623L9.96034 7.88912Z" fill="#1A1A1A"/>
</svg>
