<svg width="36" height="35" viewBox="0 0 36 35" fill="none" xmlns="http://www.w3.org/2000/svg">
<path d="M17.7803 1.29164C17.8751 1.1179 18.1245 1.1179 18.2193 1.29164L23.2442 10.5053C23.4959 10.9669 23.9417 11.2908 24.4584 11.3875L34.7739 13.3193C34.9684 13.3557 35.0455 13.593 34.9096 13.7368L27.6996 21.3629C27.3384 21.7449 27.1681 22.269 27.2358 22.7903L28.5863 33.1979C28.6117 33.3941 28.4099 33.5408 28.2311 33.4559L18.7503 28.9554L18.4286 29.633L18.7503 28.9554C18.2754 28.73 17.7243 28.73 17.2494 28.9554L7.76849 33.4559C7.58971 33.5408 7.38789 33.3941 7.41335 33.1979L8.76383 22.7903C8.83148 22.269 8.66118 21.7449 8.30002 21.3629L1.09005 13.7368C0.954094 13.593 1.03118 13.3557 1.22569 13.3193L11.5412 11.3875C12.0579 11.2908 12.5038 10.9669 12.7555 10.5053L17.7803 1.29164Z" stroke="#898989" stroke-width="1.5" stroke-linejoin="round"/>
</svg>
