<svg width="24" height="24" viewBox="0 0 24 24" fill="none" xmlns="http://www.w3.org/2000/svg">
<circle cx="12" cy="12" r="12" fill="#1A1A1A"/>
<path fill-rule="evenodd" clip-rule="evenodd" d="M6.61089 7.1242C6.60744 6.9919 6.6562 6.8585 6.75717 6.75753C6.82298 6.69172 6.90257 6.64809 6.98665 6.62664C7.01685 6.61892 7.04814 6.61395 7.08026 6.61201C7.09046 6.61139 7.10068 6.61108 7.11089 6.61108H11.9998C12.2759 6.61108 12.4998 6.83494 12.4998 7.11108C12.4998 7.38723 12.2759 7.61108 11.9998 7.61108H8.31783L16.3887 15.6819L16.3887 12.0001C16.3887 11.724 16.6125 11.5001 16.8887 11.5001C17.1648 11.5001 17.3887 11.724 17.3887 12.0001V16.889C17.3887 17.1652 17.1648 17.389 16.8887 17.389H11.9998C11.7236 17.389 11.4998 17.1652 11.4998 16.889C11.4998 16.6129 11.7236 16.389 11.9998 16.389H15.6816L7.61089 8.31836V12C7.61089 12.2761 7.38704 12.5 7.11089 12.5C6.83475 12.5 6.61089 12.2761 6.61089 12V7.1242Z" fill="white"/>
</svg>
