<svg width="75" height="100" viewBox="0 0 75 100" fill="none" xmlns="http://www.w3.org/2000/svg">
<path d="M40 20C40 31.0457 31.0457 40 20 40C8.9543 40 0 31.0457 0 20C0 8.9543 8.9543 0 20 0C31.0457 0 40 8.9543 40 20Z" fill="#D4B9EC"/>
<path d="M40 50C40 61.0457 31.0457 70 20 70C8.9543 70 0 61.0457 0 50C0 38.9543 8.9543 30 20 30C31.0457 30 40 38.9543 40 50Z" fill="#D4B9EC"/>
<path d="M40 80C40 91.0457 31.0457 100 20 100C8.9543 100 0 91.0457 0 80C0 68.9543 8.9543 60 20 60C31.0457 60 40 68.9543 40 80Z" fill="#D4B9EC"/>
<path d="M75 20C75 31.0457 66.0457 40 55 40C43.9543 40 35 31.0457 35 20C35 8.9543 43.9543 0 55 0C66.0457 0 75 8.9543 75 20Z" fill="#D4B9EC"/>
<path d="M75 50C75 61.0457 66.0457 70 55 70C43.9543 70 35 61.0457 35 50C35 38.9543 43.9543 30 55 30C66.0457 30 75 38.9543 75 50Z" fill="#D4B9EC"/>
<path d="M75 80C75 91.0457 66.0457 100 55 100C43.9543 100 35 91.0457 35 80C35 68.9543 43.9543 60 55 60C66.0457 60 75 68.9543 75 80Z" fill="#D4B9EC"/>
</svg>
