<svg width="24" height="24" viewBox="0 0 24 24" fill="none" xmlns="http://www.w3.org/2000/svg">
<path d="M15.3079 20.5848V19.8348V20.5848ZM15.3079 7.20093V6.45093V7.20093ZM2.00049 6.45093C1.58627 6.45093 1.25049 6.78671 1.25049 7.20093C1.25049 7.61514 1.58627 7.95093 2.00049 7.95093L2.00049 6.45093ZM7.94889 19.8348C7.53468 19.8348 7.19889 20.1706 7.19889 20.5848C7.19889 20.9991 7.53468 21.3348 7.94889 21.3348V19.8348ZM21.2498 13.8929C21.2498 17.1745 18.5895 19.8348 15.3079 19.8348V21.3348C19.4179 21.3348 22.7498 18.003 22.7498 13.8929H21.2498ZM15.3079 7.95093C18.5895 7.95093 21.2498 10.6112 21.2498 13.8929H22.7498C22.7498 9.7828 19.4179 6.45093 15.3079 6.45093V7.95093ZM15.3079 6.45093H2.00049L2.00049 7.95093H15.3079V6.45093ZM15.3079 19.8348L7.94889 19.8348V21.3348L15.3079 21.3348V19.8348Z" fill="#929292"/>
<path d="M5.78603 3.41539L2.00049 7.20093L5.78603 10.9865" stroke="#929292" stroke-width="1.5" stroke-linecap="round" stroke-linejoin="round"/>
</svg>
