<svg width="24" height="24" viewBox="0 0 24 24" fill="none" xmlns="http://www.w3.org/2000/svg">
<path d="M15.3081 20.5848V19.8348H15.3081L15.3081 20.5848ZM15.3081 7.20068V6.45068V7.20068ZM2.00049 6.45068C1.58627 6.45068 1.25049 6.78647 1.25049 7.20068C1.25049 7.6149 1.58627 7.95068 2.00049 7.95068L2.00049 6.45068ZM7.94901 19.8348C7.53479 19.8348 7.19901 20.1706 7.19901 20.5848C7.19901 20.9991 7.53479 21.3348 7.94901 21.3348L7.94901 19.8348ZM21.2502 13.8928C21.2502 17.1745 18.5898 19.8348 15.3081 19.8348V21.3348C19.4183 21.3348 22.7502 18.0029 22.7502 13.8928H21.2502ZM15.3081 7.95068C18.5898 7.95068 21.2502 10.611 21.2502 13.8928H22.7502C22.7502 9.78262 19.4183 6.45068 15.3081 6.45068V7.95068ZM15.3081 6.45068H2.00049L2.00049 7.95068H15.3081V6.45068ZM15.3081 19.8348L7.94901 19.8348L7.94901 21.3348L15.3081 21.3348L15.3081 19.8348Z" fill="#1A1A1A"/>
<path d="M5.7861 3.41507L2.00049 7.20068L5.7861 10.9863" stroke="#1A1A1A" stroke-width="1.5" stroke-linecap="round" stroke-linejoin="round"/>
</svg>
