<svg width="24" height="24" viewBox="0 0 24 24" fill="none" xmlns="http://www.w3.org/2000/svg">
<path fill-rule="evenodd" clip-rule="evenodd" d="M7.05037 5.63591C6.65984 5.24539 6.02668 5.24539 5.63615 5.63591C5.24563 6.02644 5.24563 6.6596 5.63615 7.05012L10.586 11.9999L5.63617 16.9497C5.24564 17.3403 5.24564 17.9734 5.63617 18.364C6.02669 18.7545 6.65986 18.7545 7.05038 18.364L12.0002 13.4142L16.9499 18.3638C17.3404 18.7544 17.9736 18.7544 18.3641 18.3638C18.7546 17.9733 18.7546 17.3401 18.3641 16.9496L13.4144 11.9999L18.3641 7.05025C18.7546 6.65973 18.7546 6.02656 18.3641 5.63604C17.9736 5.24552 17.3404 5.24552 16.9499 5.63604L12.0002 10.5857L7.05037 5.63591Z" fill="white"/>
</svg>
