<svg width="34" height="34" viewBox="0 0 34 34" fill="none" xmlns="http://www.w3.org/2000/svg">
<path fill-rule="evenodd" clip-rule="evenodd" d="M28.7686 12.125C31.1599 12.4614 33 14.5158 33 16.9999C33 19.4839 31.1599 21.5385 28.7686 21.8747C30.2218 23.8033 30.0703 26.5572 28.3137 28.3137C26.5571 30.0703 23.8035 30.2219 21.875 28.7688C21.5385 31.1602 19.4838 33 17 33C14.5162 33 12.4615 31.1603 12.125 28.7691C10.1959 30.2218 7.44291 30.07 5.6863 28.3137C3.92969 26.5571 3.77825 23.8033 5.23137 21.8747C2.84014 21.5383 1 19.4839 1 16.9999C1 14.5159 2.83954 12.4614 5.23077 12.125C3.77704 10.1964 3.92909 7.44276 5.6863 5.6863C7.44291 3.92969 10.1965 3.7781 12.125 5.23122C12.4615 2.83984 14.5162 1 17 1C19.4838 1 21.5385 2.83969 21.875 5.23077C23.8041 3.77794 26.5571 3.92969 28.3137 5.68615C30.0703 7.44261 30.2218 10.1962 28.7686 12.125Z" stroke="#898989" stroke-width="1.5" stroke-linejoin="round"/>
</svg>
