<svg width="38" height="38" viewBox="0 0 38 38" fill="none" xmlns="http://www.w3.org/2000/svg">
<path fill-rule="evenodd" clip-rule="evenodd" d="M32.2397 13.5156C34.9298 13.8941 37 16.2052 37 18.9998C37 21.7944 34.9298 24.1058 32.2397 24.484C33.8745 26.6538 33.7041 29.7519 31.7279 31.7279C29.7517 33.7041 26.6539 33.8746 24.4844 32.2399C24.1058 34.9302 21.7942 37 19 37C16.2058 37 13.8942 34.9303 13.5156 32.2402C11.3454 33.8745 8.24827 33.7038 6.27209 31.7279C4.2959 29.7517 4.12553 26.6538 5.76029 24.484C3.07016 24.1056 1 21.7944 1 18.9998C1 16.2054 3.06949 13.8941 5.75962 13.5156C4.12417 11.3459 4.29522 8.2481 6.27209 6.27209C8.24827 4.2959 11.3461 4.12536 13.5156 5.76012C13.8942 3.06982 16.2058 1 19 1C21.7942 1 24.1058 3.06966 24.4844 5.75962C26.6546 4.12519 29.7517 4.2959 31.7279 6.27192C33.7041 8.24793 33.8745 11.3457 32.2397 13.5156Z" stroke="#898989" stroke-width="1.5" stroke-linejoin="round"/>
</svg>
