<svg width="16" height="16" viewBox="0 0 16 16" fill="none" xmlns="http://www.w3.org/2000/svg">
<circle cx="8" cy="8" r="7" fill="#C4C4C4"/>
<path d="M8 10.625C7.51675 10.625 7.125 11.0168 7.125 11.5C7.125 11.9832 7.51675 12.375 8 12.375C8.48325 12.375 8.875 11.9832 8.875 11.5C8.875 11.0168 8.48325 10.625 8 10.625Z" fill="white"/>
<path d="M8 9.61572C8.23206 9.61572 8.45462 9.52556 8.61872 9.36506C8.78281 9.20456 8.875 8.98688 8.875 8.75991L8.875 4.48082C8.875 4.25384 8.78281 4.03616 8.61872 3.87566C8.45462 3.71517 8.23206 3.625 8 3.625C7.76794 3.625 7.54538 3.71517 7.38128 3.87566C7.21719 4.03616 7.125 4.25384 7.125 4.48082L7.125 8.75991C7.125 8.98688 7.21719 9.20456 7.38128 9.36506C7.54538 9.52556 7.76794 9.61572 8 9.61572Z" fill="white"/>
</svg>
