<svg width="32" height="32" viewBox="0 0 32 32" fill="none" xmlns="http://www.w3.org/2000/svg">
<path fill-rule="evenodd" clip-rule="evenodd" d="M30.6035 24.3101L18.5771 3.4798C17.4317 1.49596 14.5683 1.49596 13.4229 3.4798L1.39652 24.3101C0.251145 26.294 1.68286 28.7738 3.9736 28.7738H28.0264C30.3171 28.7738 31.7489 26.294 30.6035 24.3101ZM19.4361 2.98384C17.909 0.338718 14.091 0.338721 12.5639 2.98384L0.537488 23.8142C-0.989674 26.4593 0.919281 29.7657 3.9736 29.7657H28.0264C31.0807 29.7657 32.9897 26.4593 31.4625 23.8142L19.4361 2.98384Z" fill="#1A1A1A"/>
<path d="M16.0585 18.5571C16.1797 18.5571 16.296 18.509 16.3817 18.4232C16.4675 18.3375 16.5156 18.2212 16.5156 18.1V8.95714C16.5156 8.8359 16.4675 8.71962 16.3817 8.63389C16.296 8.54816 16.1797 8.5 16.0585 8.5C15.9372 8.5 15.821 8.54816 15.7352 8.63389C15.6495 8.71962 15.6013 8.8359 15.6013 8.95714V18.1C15.6013 18.2212 15.6495 18.3375 15.7352 18.4232C15.821 18.509 15.9372 18.5571 16.0585 18.5571ZM16 20.8429C14.9915 20.8429 14.1714 21.663 14.1714 22.6714C14.1714 23.6799 14.9915 24.5 16 24.5C17.0084 24.5 17.8285 23.6799 17.8285 22.6714C17.8285 21.663 17.0084 20.8429 16 20.8429ZM16 23.5857C15.7645 23.5752 15.5423 23.4743 15.3794 23.3039C15.2165 23.1336 15.1257 22.9071 15.1257 22.6714C15.1257 22.4358 15.2165 22.2092 15.3794 22.0389C15.5423 21.8686 15.7645 21.7677 16 21.7571C16.2354 21.7677 16.4576 21.8686 16.6205 22.0389C16.7834 22.2092 16.8743 22.4358 16.8743 22.6714C16.8743 22.9071 16.7834 23.1336 16.6205 23.3039C16.4576 23.4743 16.2354 23.5752 16 23.5857Z" fill="#1A1A1A"/>
</svg>
