<svg width="16" height="16" viewBox="0 0 16 16" fill="none" xmlns="http://www.w3.org/2000/svg">
<path d="M7.9849 5.76901C8.18016 5.96427 8.18016 6.28085 7.9849 6.47611C7.78964 6.67137 7.47306 6.67137 7.27779 6.47611L7.9849 5.76901ZM5.50879 4L5.15524 3.64645C5.3505 3.45119 5.66708 3.45119 5.86234 3.64645L5.50879 4ZM3.69765 6.51825C3.50239 6.71351 3.1858 6.71351 2.99054 6.51825C2.79528 6.32299 2.79528 6.0064 2.99054 5.81114L3.69765 6.51825ZM7.27779 6.47611L5.15524 4.35355L5.86234 3.64645L7.9849 5.76901L7.27779 6.47611ZM5.86234 4.35355L3.69765 6.51825L2.99054 5.81114L5.15524 3.64645L5.86234 4.35355Z" fill="#929292"/>
<path d="M8.01559 9.23099C7.82033 9.03573 7.82033 8.71915 8.01559 8.52389C8.21085 8.32863 8.52743 8.32863 8.72269 8.52389L8.01559 9.23099ZM10.4917 11L10.8453 11.3536C10.65 11.5488 10.3334 11.5488 10.1381 11.3536L10.4917 11ZM12.3028 8.48175C12.4981 8.28649 12.8147 8.28649 13.0099 8.48175C13.2052 8.67701 13.2052 8.9936 13.0099 9.18886L12.3028 8.48175ZM8.72269 8.52389L10.8453 10.6464L10.1381 11.3536L8.01559 9.23099L8.72269 8.52389ZM10.1381 10.6464L12.3028 8.48175L13.0099 9.18886L10.8453 11.3536L10.1381 10.6464Z" fill="#929292"/>
<path d="M5.01274 4.0242C5.01275 3.74806 5.23661 3.52421 5.51276 3.52422C5.7889 3.52423 6.01275 3.74809 6.01274 4.02423L5.01274 4.0242ZM6.01252 10.9999C6.01251 11.2761 5.78865 11.4999 5.51251 11.4999C5.23636 11.4999 5.01251 11.2761 5.01252 10.9999L6.01252 10.9999ZM6.01274 4.02423L6.01252 10.9999L5.01252 10.9999L5.01274 4.0242L6.01274 4.02423Z" fill="#929292"/>
<path d="M10.9877 10.9758C10.9877 11.2519 10.7639 11.4758 10.4877 11.4758C10.2116 11.4758 9.98774 11.2519 9.98775 10.9758L10.9877 10.9758ZM9.98797 4.00005C9.98798 3.72391 10.2118 3.50006 10.488 3.50007C10.7641 3.50008 10.988 3.72394 10.988 4.00009L9.98797 4.00005ZM9.98775 10.9758L9.98797 4.00005L10.988 4.00009L10.9877 10.9758L9.98775 10.9758Z" fill="#929292"/>
</svg>
