<svg width="24" height="24" viewBox="0 0 24 24" fill="none" xmlns="http://www.w3.org/2000/svg">
<path fill-rule="evenodd" clip-rule="evenodd" d="M5.11957 4.11982C5.26022 3.97916 5.45099 3.90015 5.6499 3.90015H12.2651H18.8774C19.2916 3.90015 19.6274 4.23593 19.6274 4.65015V7.09981C19.6274 7.51402 19.2916 7.84981 18.8774 7.84981C18.4632 7.84981 18.1274 7.51402 18.1274 7.09981V5.40015H13.0151V18.5991H15.572C15.9862 18.5991 16.322 18.9349 16.322 19.3491C16.322 19.7633 15.9862 20.0991 15.572 20.0991H8.95821C8.544 20.0991 8.20821 19.7633 8.20821 19.3491C8.20821 18.9349 8.544 18.5991 8.95821 18.5991H11.5151V5.40015H6.3999V7.09981C6.3999 7.51402 6.06412 7.84981 5.6499 7.84981C5.23569 7.84981 4.8999 7.51402 4.8999 7.09981V4.65015C4.8999 4.45123 4.97892 4.26047 5.11957 4.11982Z" fill="#929292"/>
</svg>
