<svg width="24" height="24" viewBox="0 0 24 24" fill="none" xmlns="http://www.w3.org/2000/svg">
<path fill-rule="evenodd" clip-rule="evenodd" d="M5.11957 4.11957C5.26022 3.97892 5.45099 3.8999 5.6499 3.8999H12.2643H18.8773C19.2915 3.8999 19.6273 4.23569 19.6273 4.6499V7.09955C19.6273 7.51376 19.2915 7.84955 18.8773 7.84955C18.4631 7.84955 18.1273 7.51376 18.1273 7.09955V5.3999H13.0143V18.5981H15.5716C15.9858 18.5981 16.3216 18.9339 16.3216 19.3481C16.3216 19.7624 15.9858 20.0981 15.5716 20.0981H8.95785C8.54364 20.0981 8.20785 19.7624 8.20785 19.3481C8.20785 18.9339 8.54364 18.5981 8.95785 18.5981H11.5143V5.3999H6.3999V7.09955C6.3999 7.51376 6.06412 7.84955 5.6499 7.84955C5.23569 7.84955 4.8999 7.51376 4.8999 7.09955V4.6499C4.8999 4.45099 4.97892 4.26022 5.11957 4.11957Z" fill="#1A1A1A"/>
</svg>
