<svg width="40" height="40" viewBox="0 0 40 40" fill="none" xmlns="http://www.w3.org/2000/svg">
<path d="M19.1224 1.93254C19.5014 1.2376 20.4992 1.2376 20.8782 1.93254L25.9031 11.1462C26.0469 11.41 26.3017 11.5951 26.5969 11.6504L36.9125 13.5821C37.6905 13.7278 37.9989 14.6768 37.455 15.252L30.2451 22.8781C30.0387 23.0964 29.9414 23.3959 29.98 23.6938L31.3305 34.1014C31.4324 34.8864 30.6251 35.4729 29.91 35.1335L20.4291 30.633C20.1578 30.5041 19.8428 30.5041 19.5715 30.633L10.0906 35.1335C9.3755 35.4729 8.56822 34.8864 8.67008 34.1014L10.0206 23.6938C10.0592 23.3959 9.9619 23.0964 9.75552 22.8781L2.54554 15.252C2.00173 14.6768 2.31009 13.7278 3.08813 13.5821L13.4036 11.6504C13.6989 11.5951 13.9537 11.41 14.0975 11.1462L19.1224 1.93254Z" stroke="#898989" stroke-width="1.5"/>
</svg>
