<svg width="34" height="34" viewBox="0 0 34 34" fill="none" xmlns="http://www.w3.org/2000/svg">
<path d="M15.7993 2.60978C16.1783 1.91484 17.1762 1.91484 17.5552 2.60979L21.4344 9.72279C21.5782 9.98652 21.833 10.1716 22.1282 10.2269L30.0919 11.7182C30.8699 11.8639 31.1783 12.8129 30.6344 13.3881L25.0683 19.2755C24.8619 19.4938 24.7646 19.7933 24.8033 20.0912L25.8459 28.1259C25.9477 28.9109 25.1404 29.4974 24.4253 29.158L17.1061 25.6836C16.8347 25.5547 16.5198 25.5547 16.2484 25.6836L8.92915 29.158C8.21405 29.4974 7.40677 28.9109 7.50863 28.1259L8.5512 20.0912C8.58986 19.7933 8.49255 19.4938 8.28617 19.2755L2.72004 13.3881C2.17623 12.8129 2.48459 11.8639 3.26263 11.7182L11.2262 10.2269C11.5215 10.1716 11.7763 9.98652 11.9201 9.72279L15.7993 2.60978Z" stroke="#898989" stroke-width="1.5"/>
</svg>
