<svg width="36" height="36" viewBox="0 0 36 36" fill="none" xmlns="http://www.w3.org/2000/svg">
<path fill-rule="evenodd" clip-rule="evenodd" d="M31.2397 12.5156C33.9298 12.8941 36 15.2052 36 17.9998C36 20.7944 33.9298 23.1058 31.2397 23.484C32.8745 25.6538 32.7041 28.7519 30.7279 30.7279C28.7517 32.7041 25.6539 32.8746 23.4844 31.2399C23.1058 33.9302 20.7942 36 18 36C15.2058 36 12.8942 33.9303 12.5156 31.2402C10.3454 32.8745 7.24827 32.7038 5.27209 30.7279C3.2959 28.7517 3.12553 25.6538 4.76029 23.484C2.07016 23.1056 0 20.7944 0 17.9998C0 15.2054 2.06949 12.8941 4.75962 12.5156C3.12417 10.3459 3.29522 7.2481 5.27209 5.27209C7.24827 3.2959 10.3461 3.12536 12.5156 4.76012C12.8942 2.06982 15.2058 0 18 0C20.7942 0 23.1058 2.06966 23.4844 4.75962C25.6546 3.12519 28.7517 3.2959 30.7279 5.27192C32.7041 7.24793 32.8745 10.3457 31.2397 12.5156Z" fill="#C4C4C4"/>
</svg>
