<svg width="24" height="24" viewBox="0 0 24 24" fill="none" xmlns="http://www.w3.org/2000/svg">
<path d="M2.00001 8.43618C1.99714 6.79212 2.62498 5.20951 3.75429 4.0141C4.88361 2.81869 6.42847 2.10143 8.07091 2.00996C9.71334 1.91849 11.3284 2.45977 12.5836 3.52238C13.8388 4.585 14.6387 6.0881 14.8186 7.7223H12.7143C11.3882 7.7223 10.1164 8.24879 9.17876 9.18594C8.24108 10.1231 7.71429 11.3942 7.71429 12.7195V14.8226C6.14259 14.647 4.69081 13.8985 3.63659 12.7203C2.58238 11.542 1.99971 10.0168 2.00001 8.43618V8.43618ZM12.7143 9.15007C11.7671 9.15007 10.8587 9.52613 10.1889 10.1955C9.51914 10.8649 9.14286 11.7728 9.14286 12.7195V18.4306C9.14286 19.3772 9.51914 20.2851 10.1889 20.9545C10.8587 21.6239 11.7671 22 12.7143 22H18.4286C19.3758 22 20.2842 21.6239 20.954 20.9545C21.6237 20.2851 22 19.3772 22 18.4306V12.7195C22 11.7728 21.6237 10.8649 20.954 10.1955C20.2842 9.52613 19.3758 9.15007 18.4286 9.15007H12.7143Z" fill="#929292"/>
</svg>
