<svg width="24" height="24" viewBox="0 0 24 24" fill="none" xmlns="http://www.w3.org/2000/svg">
<rect x="2" y="2" width="20" height="20" rx="2" fill="#1A1A1A"/>
<path d="M8.42819 11.2858C9.18595 11.2858 9.91268 10.9848 10.4485 10.449C10.9843 9.91316 11.2853 9.18644 11.2853 8.42868C11.2853 7.67091 10.9843 6.94419 10.4485 6.40837C9.91268 5.87255 9.18595 5.57153 8.42819 5.57153C7.67043 5.57153 6.9437 5.87255 6.40788 6.40837C5.87206 6.94419 5.57104 7.67091 5.57104 8.42868C5.57104 9.18644 5.87206 9.91316 6.40788 10.449C6.9437 10.9848 7.67043 11.2858 8.42819 11.2858V11.2858Z" fill="white"/>
<path d="M10.563 18.7225L15.3522 14.8569L19.1426 18.3023V19.0426C19.1426 19.0979 19.0979 19.1426 19.0426 19.1426H4.95693C4.90171 19.1426 4.85693 19.0979 4.85693 19.0426V19.0166L7.21051 16.6217L10.563 18.7225Z" fill="white" stroke="white" stroke-width="1.55556" stroke-linecap="round" stroke-linejoin="round"/>
</svg>
