<svg width="24" height="24" viewBox="0 0 24 24" fill="none" xmlns="http://www.w3.org/2000/svg">
<path d="M8.69263 20.5848V19.8348V20.5848ZM8.69263 7.20093V6.45093V7.20093ZM22 6.45093C22.4142 6.45093 22.75 6.78671 22.75 7.20093C22.75 7.61514 22.4142 7.95093 22 7.95093L22 6.45093ZM16.0516 19.8348C16.4658 19.8348 16.8016 20.1706 16.8016 20.5848C16.8016 20.9991 16.4658 21.3348 16.0516 21.3348V19.8348ZM2.75068 13.8929C2.75068 17.1745 5.41098 19.8348 8.69263 19.8348V21.3348C4.58255 21.3348 1.25068 18.003 1.25068 13.8929H2.75068ZM8.69263 7.95093C5.41098 7.95093 2.75068 10.6112 2.75068 13.8929H1.25068C1.25068 9.7828 4.58255 6.45093 8.69263 6.45093V7.95093ZM8.69263 6.45093H22L22 7.95093H8.69263V6.45093ZM8.69263 19.8348L16.0516 19.8348V21.3348L8.69263 21.3348V19.8348Z" fill="#929292"/>
<path d="M18.2145 3.41539L22 7.20093L18.2145 10.9865" stroke="#929292" stroke-width="1.5" stroke-linecap="round" stroke-linejoin="round"/>
</svg>
