<svg width="16" height="16" viewBox="0 0 16 16" fill="none" xmlns="http://www.w3.org/2000/svg">
<path d="M8.71777 3.64648C8.91303 3.45122 9.22962 3.45122 9.42488 3.64648C9.62014 3.84174 9.62014 4.15833 9.42488 4.35359L8.71777 3.64648ZM4.82868 8.24268L4.47513 8.59623L4.12158 8.24268L4.47513 7.88912L4.82868 8.24268ZM9.42488 12.1318C9.62014 12.327 9.62014 12.6436 9.42488 12.8389C9.22962 13.0341 8.91303 13.0341 8.71777 12.8389L9.42488 12.1318ZM9.42488 4.35359L5.18224 8.59623L4.47513 7.88912L8.71777 3.64648L9.42488 4.35359ZM5.18224 7.88912L9.42488 12.1318L8.71777 12.8389L4.47513 8.59623L5.18224 7.88912Z" fill="#1A1A1A"/>
</svg>
