<svg width="24" height="25" viewBox="0 0 24 25" fill="none" xmlns="http://www.w3.org/2000/svg">
<path d="M12 6.76646C13.16 6.76646 14.1 7.70646 14.1 8.86646C14.1 10.0265 13.16 10.9665 12 10.9665C10.84 10.9665 9.9 10.0265 9.9 8.86646C9.9 7.70646 10.84 6.76646 12 6.76646ZM12 15.7665C14.97 15.7665 18.1 17.2265 18.1 17.8665V18.9665H5.9V17.8665C5.9 17.2265 9.03 15.7665 12 15.7665ZM12 4.86646C9.79 4.86646 8 6.65646 8 8.86646C8 11.0765 9.79 12.8665 12 12.8665C14.21 12.8665 16 11.0765 16 8.86646C16 6.65646 14.21 4.86646 12 4.86646ZM12 13.8665C9.33 13.8665 4 15.2065 4 17.8665V20.8665H20V17.8665C20 15.2065 14.67 13.8665 12 13.8665Z" fill="black"/>
</svg>
