<svg width="327" height="268" viewBox="0 0 327 268" fill="none" xmlns="http://www.w3.org/2000/svg">
<g clip-path="url(#clip0_1102_13332)">
<circle cx="5" cy="52" r="52" fill="#D4B9EC" fill-opacity="0.15"/>
<path d="M-9.1835 49.4V48.216H-11.2795V44.136H-12.6875V54.296H-11.2795V49.4H-9.1835ZM-10.8155 57.672V56.52H-18.7195V53.288H-20.1275V57.672H-10.8155ZM-18.1435 45.144C-20.3035 45.144 -21.8875 46.632 -21.8875 48.696C-21.8875 50.744 -20.3035 52.136 -18.1275 52.136C-15.9835 52.136 -14.3995 50.744 -14.3995 48.68C-14.3995 46.632 -15.9835 45.144 -18.1435 45.144ZM-18.1435 46.344C-16.7515 46.344 -15.8555 47.32 -15.8555 48.68C-15.8555 50.024 -16.7515 50.936 -18.1275 50.936C-19.4875 50.936 -20.4315 50.008 -20.4315 48.664C-20.4315 47.32 -19.5035 46.344 -18.1435 46.344ZM3.23625 52.136V44.136H1.81225V52.136H3.23625ZM3.23625 57.928V52.968H-5.96375V57.928H3.23625ZM1.81225 56.808H-4.55575V54.088H1.81225V56.808ZM0.228251 50.568C-1.37175 50.008 -3.24375 48.328 -3.24375 46.008V44.712H-4.69975V46.072C-4.69975 48.36 -6.36375 50.152 -8.33175 51L-7.46775 52.088C-5.86775 51.304 -4.37975 49.832 -3.96375 48.392C-3.37175 49.784 -1.85175 51.096 -0.603749 51.656L0.228251 50.568ZM18.632 51.144V49.96H16.408V44.136H14.984V58.12H16.408V51.144H18.632ZM11.784 46.2V45.048H7.608V46.2H11.784ZM13.816 48.6V47.464H5.528V48.6H13.816ZM13.032 52.344C13.032 50.664 11.72 49.384 9.736 49.384C7.752 49.384 6.424 50.696 6.424 52.344C6.424 54.024 7.752 55.272 9.736 55.272C11.72 55.272 13.032 53.992 13.032 52.344ZM11.64 52.344C11.64 53.368 10.888 54.088 9.736 54.088C8.632 54.088 7.848 53.368 7.848 52.344C7.848 51.304 8.648 50.568 9.736 50.568C10.824 50.568 11.64 51.304 11.64 52.344ZM32.0758 52.408V51.256H19.4518V52.408H32.0758ZM30.7478 57.816V56.648H22.5398V53.672H21.1318V57.816H30.7478ZM30.6838 49.608V48.456H22.5878V44.712H21.1798V49.608H30.6838Z" fill="#D4B9EC"/>
<circle cx="57" cy="142" r="52" fill="#D4B9EC" fill-opacity="0.15"/>
<path d="M48.4264 147.896V146.728H39.7064V145.736H47.8984V142.584H38.2664V143.736H46.4904V144.664H38.2984V147.896H48.4264ZM48.8264 138.552C46.9224 138.392 44.5064 137.528 43.9944 135.96H48.2184V134.824H38.0584V135.96H42.3464C41.8824 137.544 39.7064 138.376 37.5624 138.552L38.1544 139.656C40.4584 139.352 42.5704 138.328 43.1464 137.016C43.8824 138.296 46.0424 139.352 48.1864 139.656L48.8264 138.552ZM49.4664 141.576V140.408H36.8424V141.576H49.4664ZM60.7341 140.92V148.12H62.1421V134.136H60.7341V139.736H57.7261V140.92H60.7341ZM57.6941 135.624H51.2781V136.824H56.1901C55.9341 139.832 53.9021 142.792 50.5741 144.36L51.4541 145.448C55.2621 143.368 57.5981 140.072 57.6941 135.624ZM75.6499 137.336C75.6499 135.64 73.8419 134.6 70.8339 134.6C67.8099 134.6 66.0499 135.64 66.0499 137.336C66.0499 139.064 67.8099 140.088 70.8339 140.088C73.8419 140.088 75.6499 139.064 75.6499 137.336ZM71.6179 145.096V142.376H77.1539V141.224H64.5299V142.376H70.2099V145.096H71.6179ZM70.8339 135.768C72.8819 135.768 74.2099 136.328 74.2099 137.352C74.2099 138.376 72.8659 138.936 70.8179 138.936C68.8019 138.936 67.4899 138.376 67.4899 137.352C67.4899 136.328 68.8019 135.768 70.8339 135.768ZM75.6499 147.704V146.552H67.5859V143.64H66.1779V147.704H75.6499Z" fill="#D4B9EC"/>
<circle cx="109" cy="52" r="52" fill="#D4B9EC" fill-opacity="0.15"/>
<path d="M93.3925 58.12V44.136H91.9685V58.12H93.3925ZM89.2965 45.624H82.5605V46.824H87.7605C87.5045 49.832 85.2325 52.76 81.9365 54.344L82.8005 55.416C86.6245 53.336 89.2165 50.072 89.2965 45.624ZM107.572 58.12V44.136H106.212V49.512H104.548V44.44H103.188V57.432H104.548V50.664H106.212V58.12H107.572ZM97.6043 53.416V47.016H101.652V45.864H96.1963V54.6H97.5403C99.2843 54.6 101.3 54.472 102.516 54.216L102.324 53.048C101.236 53.288 99.4923 53.416 97.8603 53.416H97.6043ZM118.904 54.904L118.808 53.784C117.848 53.912 116.392 54.008 114.92 54.088V51.288H117.992V50.136H112.024V46.632H117.912V45.48H110.616V51.288H113.512V54.136C112.136 54.184 110.76 54.2 109.624 54.2L109.832 55.4C110.824 55.4 112.856 55.352 114.392 55.272C116.104 55.176 117.736 55.048 118.904 54.904ZM121.176 58.12V44.136H119.768V58.12H121.176ZM136.076 52.408V51.256H123.452V52.408H136.076ZM134.748 57.816V56.648H126.54V53.672H125.132V57.816H134.748ZM134.684 49.608V48.456H126.588V44.712H125.18V49.608H134.684Z" fill="#D4B9EC"/>
<circle cx="161" cy="142" r="52" fill="#D4B9EC" fill-opacity="0.15"/>
<path d="M145.473 145.416C145.473 143.752 143.761 142.696 140.705 142.696C137.697 142.696 135.953 143.752 135.953 145.416C135.953 147.08 137.697 148.12 140.705 148.12C143.761 148.12 145.473 147.08 145.473 145.416ZM140.705 143.848C142.817 143.848 144.033 144.44 144.033 145.416C144.033 146.392 142.817 146.968 140.705 146.968C138.657 146.968 137.424 146.392 137.424 145.416C137.424 144.44 138.657 143.848 140.705 143.848ZM141.057 140.712H143.969V142.792H145.393V134.136H143.969V136.744H141.217V137.88H143.969V139.576H141.057V140.712ZM141.041 135.208H134.673V136.376H139.473C139.025 138.776 136.721 140.792 133.985 141.496L134.801 142.648C138.481 141.384 140.849 138.84 141.041 135.208ZM159.3 148.12V134.136H157.876V148.12H159.3ZM148.26 140.12C148.26 142.904 149.38 145.08 151.86 145.08C154.34 145.08 155.444 142.904 155.444 140.136C155.444 137.352 154.34 135.192 151.86 135.192C149.38 135.192 148.26 137.352 148.26 140.12ZM154.036 140.136C154.036 142.296 153.3 143.848 151.86 143.848C150.436 143.848 149.7 142.296 149.7 140.136C149.7 137.976 150.436 136.408 151.86 136.408C153.3 136.408 154.036 137.976 154.036 140.136ZM174.232 146.344V145.192H168.6V142.984H173.048V141.832H164.536V139.64H172.664V135.288H163.096V136.44H171.256V138.488H163.128V142.984H167.176V145.192H161.608V146.344H174.232ZM186.572 137.336C186.572 135.64 184.764 134.6 181.756 134.6C178.732 134.6 176.972 135.64 176.972 137.336C176.972 139.064 178.732 140.088 181.756 140.088C184.764 140.088 186.572 139.064 186.572 137.336ZM182.54 145.096V142.376H188.076V141.224H175.452V142.376H181.132V145.096H182.54ZM181.756 135.768C183.804 135.768 185.132 136.328 185.132 137.352C185.132 138.376 183.788 138.936 181.74 138.936C179.724 138.936 178.412 138.376 178.412 137.352C178.412 136.328 179.724 135.768 181.756 135.768ZM186.572 147.704V146.552H178.508V143.64H177.1V147.704H186.572Z" fill="#D4B9EC"/>
<circle cx="213" cy="52" r="52" fill="#D4B9EC" fill-opacity="0.15"/>
<path d="M205.722 48.856V47.688H203.642V44.136H202.218V52.184H203.642V48.856H205.722ZM203.642 57.928V52.888H194.778V57.928H203.642ZM202.234 56.808H196.186V54.024H202.234V56.808ZM193.434 45.176V46.36H198.202C197.818 48.776 195.306 50.696 192.714 51.208L193.45 52.344C197.066 51.368 199.61 48.904 199.77 45.176H193.434ZM213.822 50.696H216.734V52.392H218.158V44.136H216.734V46.632H213.998V47.816H216.734V49.528H213.822V50.696ZM213.79 45.064H207.47V46.248H212.222C211.806 48.632 209.406 50.568 206.718 51.144L207.55 52.296C211.134 51.16 213.55 48.792 213.79 45.064ZM218.174 58.136V53.112H208.798V54.28H216.734V58.136H218.174ZM233.426 50.024V48.824H231.33V44.136H229.922V54.44H231.33V50.024H233.426ZM231.81 57.704V56.568H223.89V54.04H222.482V57.704H231.81ZM226.514 45.72V44.568H222.45V45.72H226.514ZM228.658 47.816V46.68H220.45V47.816H228.658ZM227.874 50.984C227.874 49.4 226.466 48.472 224.562 48.472C222.674 48.472 221.266 49.4 221.266 50.984C221.266 52.536 222.69 53.48 224.562 53.48C226.466 53.48 227.874 52.52 227.874 50.984ZM226.466 50.984C226.466 51.832 225.586 52.344 224.562 52.344C223.554 52.344 222.674 51.832 222.674 50.984C222.674 50.088 223.554 49.608 224.562 49.608C225.586 49.608 226.466 50.088 226.466 50.984Z" fill="#D4B9EC"/>
<circle cx="265" cy="142" r="52" fill="#D4B9EC" fill-opacity="0.15"/>
<path d="M257.722 138.52V137.336H255.642V134.136H254.218V141.608H255.642V138.52H257.722ZM255.642 147.928V142.344H254.234V144.024H248.17V142.36H246.762V147.928H255.642ZM254.234 146.792H248.17V145.128H254.234V146.792ZM246.762 139.88V136.2H251.626V135.048H245.354V141.032H246.778C249.242 141.016 251.514 140.84 252.986 140.536C252.906 140.152 252.858 139.8 252.778 139.416C251.29 139.736 248.858 139.88 246.762 139.88ZM271.566 138.52V137.336H269.486V134.136H268.062V141.608H269.486V138.52H271.566ZM269.486 147.928V142.344H268.078V144.024H262.014V142.36H260.606V147.928H269.486ZM268.078 146.792H262.014V145.128H268.078V146.792ZM260.606 139.88V136.2H265.47V135.048H259.198V141.032H260.622C263.086 141.016 265.358 140.84 266.83 140.536C266.75 140.152 266.702 139.8 266.622 139.416C265.134 139.736 262.702 139.88 260.606 139.88ZM285.426 140.024V138.824H283.33V134.136H281.922V144.44H283.33V140.024H285.426ZM283.81 147.704V146.568H275.89V144.04H274.482V147.704H283.81ZM278.514 135.72V134.568H274.45V135.72H278.514ZM280.658 137.816V136.68H272.45V137.816H280.658ZM279.874 140.984C279.874 139.4 278.466 138.472 276.562 138.472C274.674 138.472 273.266 139.4 273.266 140.984C273.266 142.536 274.69 143.48 276.562 143.48C278.466 143.48 279.874 142.52 279.874 140.984ZM278.466 140.984C278.466 141.832 277.586 142.344 276.562 142.344C275.554 142.344 274.674 141.832 274.674 140.984C274.674 140.088 275.554 139.608 276.562 139.608C277.586 139.608 278.466 140.088 278.466 140.984Z" fill="#D4B9EC"/>
<circle cx="317" cy="52" r="52" fill="#D4B9EC" fill-opacity="0.15"/>
<path d="M308.378 58.12V44.136H306.954V49.048H303.834V50.248H306.954V58.12H308.378ZM305.258 53.736C303.29 52.52 301.722 50.312 301.722 47.688V45.336H300.266V47.752C300.266 50.328 298.778 52.76 296.666 54.088L297.562 55.128C299.13 54.088 300.522 52.312 301.002 50.6C301.53 52.232 303.162 53.976 304.41 54.792L305.258 53.736ZM323.31 50.984V49.832H310.686V50.984H323.31ZM322.158 58.008V56.84H313.646V55.576H321.694V52.184H312.206V53.336H320.27V54.504H312.222V58.008H322.158ZM321.838 48.712V47.576H313.758V44.488H312.35V48.712H321.838ZM337.426 50.024V48.824H335.33V44.136H333.922V54.44H335.33V50.024H337.426ZM335.81 57.704V56.568H327.89V54.04H326.482V57.704H335.81ZM330.514 45.72V44.568H326.45V45.72H330.514ZM332.658 47.816V46.68H324.45V47.816H332.658ZM331.874 50.984C331.874 49.4 330.466 48.472 328.562 48.472C326.674 48.472 325.266 49.4 325.266 50.984C325.266 52.536 326.69 53.48 328.562 53.48C330.466 53.48 331.874 52.52 331.874 50.984ZM330.466 50.984C330.466 51.832 329.586 52.344 328.562 52.344C327.554 52.344 326.674 51.832 326.674 50.984C326.674 50.088 327.554 49.608 328.562 49.608C329.586 49.608 330.466 50.088 330.466 50.984Z" fill="#D4B9EC"/>
<circle cx="369" cy="142" r="52" fill="#D4B9EC" fill-opacity="0.15"/>
<circle cx="5" cy="232" r="52" fill="#D4B9EC" fill-opacity="0.15"/>
<path d="M-6.99762 234.28C-8.77362 233.48 -10.4376 231.624 -10.4376 228.936V228.6H-7.34962V227.448H-15.0136V228.6H-11.8936V228.952C-11.8936 231.64 -13.5736 233.672 -15.5096 234.664L-14.5976 235.688C-13.0456 234.872 -11.5416 233.112 -11.1576 231.64C-10.7256 233.08 -9.22162 234.648 -7.82962 235.352L-6.99762 234.28ZM-2.16562 231.016V229.832H-4.35762V224.136H-5.76562V238.12H-4.35762V231.016H-2.16562ZM-9.12562 226.184V225.016H-13.2536V226.184H-9.12562ZM9.72613 229.992V224.568H8.31813V226.232H1.67813V224.584H0.254125V229.992H9.72613ZM5.75813 235.16V232.584H11.3101V231.432H-1.31387V232.584H4.35013V235.16H5.75813ZM9.83813 237.704V236.552H1.67813V233.864H0.254125V237.704H9.83813ZM8.31813 228.84H1.67813V227.352H8.31813V228.84ZM25.4259 230.024V228.824H23.3299V224.136H21.9219V234.44H23.3299V230.024H25.4259ZM23.8099 237.704V236.568H15.8899V234.04H14.4819V237.704H23.8099ZM18.5139 225.72V224.568H14.4499V225.72H18.5139ZM20.6579 227.816V226.68H12.4499V227.816H20.6579ZM19.8739 230.984C19.8739 229.4 18.4659 228.472 16.5619 228.472C14.6739 228.472 13.2659 229.4 13.2659 230.984C13.2659 232.536 14.6899 233.48 16.5619 233.48C18.4659 233.48 19.8739 232.52 19.8739 230.984ZM18.4659 230.984C18.4659 231.832 17.5859 232.344 16.5619 232.344C15.5539 232.344 14.6739 231.832 14.6739 230.984C14.6739 230.088 15.5539 229.608 16.5619 229.608C17.5859 229.608 18.4659 230.088 18.4659 230.984Z" fill="#D4B9EC"/>
<circle cx="109" cy="232" r="52" fill="#D4B9EC" fill-opacity="0.15"/>
<path d="M101.466 236.088V234.936H88.8424V236.088H101.466ZM99.7864 225.72H90.1544V226.856H98.3464C98.3464 228.968 98.1064 232.408 97.7544 233.752L99.1304 233.928C99.5464 232.12 99.7864 228.904 99.7864 225.72ZM111.582 233.192C109.886 233.512 107.182 233.624 105.23 233.624H104.814V230.456H110.046V225.4H103.342V226.552H108.638V229.32H103.406V234.824H105.15C107.982 234.792 110.27 234.6 111.726 234.36L111.582 233.192ZM112.798 224.136V238.12H114.222V224.136H112.798ZM127.65 227.336C127.65 225.64 125.842 224.6 122.834 224.6C119.81 224.6 118.05 225.64 118.05 227.336C118.05 229.064 119.81 230.088 122.834 230.088C125.842 230.088 127.65 229.064 127.65 227.336ZM123.618 235.096V232.376H129.154V231.224H116.53V232.376H122.21V235.096H123.618ZM122.834 225.768C124.882 225.768 126.21 226.328 126.21 227.352C126.21 228.376 124.866 228.936 122.818 228.936C120.802 228.936 119.49 228.376 119.49 227.352C119.49 226.328 120.802 225.768 122.834 225.768ZM127.65 237.704V236.552H119.586V233.64H118.178V237.704H127.65Z" fill="#D4B9EC"/>
<circle cx="213" cy="232" r="52" fill="#D4B9EC" fill-opacity="0.15"/>
<path d="M204.314 234.296V224.136H202.89V234.296H204.314ZM201.306 231.016C199.658 230.44 197.802 228.696 197.802 226.424V224.92H196.362V226.488C196.362 228.696 194.746 230.68 192.842 231.48L193.706 232.584C195.146 231.928 196.666 230.312 197.098 228.824C197.69 230.248 199.194 231.576 200.49 232.12L201.306 231.016ZM204.618 237.72V236.568H196.618V233.352H195.194V237.72H204.618ZM215.118 233.864C215.038 233.48 214.974 233.096 214.91 232.696C213.262 233.128 210.19 233.32 208.526 233.32V225.512H207.118V234.536C207.534 234.536 207.966 234.536 208.414 234.52C210.366 234.488 213.518 234.28 215.118 233.864ZM217.486 224.136H216.062V238.12H217.486V230.808H219.71V229.608H217.486V224.136ZM233.154 232.408V231.256H220.53V232.408H233.154ZM231.826 237.816V236.648H223.618V233.672H222.21V237.816H231.826ZM231.762 229.608V228.456H223.666V224.712H222.258V229.608H231.762Z" fill="#D4B9EC"/>
<circle cx="317" cy="232" r="52" fill="#D4B9EC" fill-opacity="0.15"/>
<path d="M307.962 237.704V236.568H299.802V233.752H298.378V237.704H307.962ZM309.466 232.472V231.32H296.842V232.472H309.466ZM307.962 229.672V228.52H299.834V225.88H307.834V224.728H298.41V229.672H307.962ZM321.806 237.704V236.568H313.646V233.752H312.222V237.704H321.806ZM323.31 232.472V231.32H310.686V232.472H323.31ZM321.806 229.672V228.52H313.678V225.88H321.678V224.728H312.254V229.672H321.806ZM337.426 230.024V228.824H335.33V224.136H333.922V234.44H335.33V230.024H337.426ZM335.81 237.704V236.568H327.89V234.04H326.482V237.704H335.81ZM330.514 225.72V224.568H326.45V225.72H330.514ZM332.658 227.816V226.68H324.45V227.816H332.658ZM331.874 230.984C331.874 229.4 330.466 228.472 328.562 228.472C326.674 228.472 325.266 229.4 325.266 230.984C325.266 232.536 326.69 233.48 328.562 233.48C330.466 233.48 331.874 232.52 331.874 230.984ZM330.466 230.984C330.466 231.832 329.586 232.344 328.562 232.344C327.554 232.344 326.674 231.832 326.674 230.984C326.674 230.088 327.554 229.608 328.562 229.608C329.586 229.608 330.466 230.088 330.466 230.984Z" fill="#D4B9EC"/>
</g>
<defs>
<clipPath id="clip0_1102_13332">
<rect width="327" height="268" fill="white"/>
</clipPath>
</defs>
</svg>
