<svg width="660" height="284" viewBox="0 0 660 284" fill="none" xmlns="http://www.w3.org/2000/svg">
<g clip-path="url(#clip0_1750_15409)">
<circle cy="52" r="52" fill="#D4B9EC" fill-opacity="0.15"/>
<path d="M-14.1835 49.4V48.216H-16.2795V44.136H-17.6875V54.296H-16.2795V49.4H-14.1835ZM-15.8155 57.672V56.52H-23.7195V53.288H-25.1275V57.672H-15.8155ZM-23.1435 45.144C-25.3035 45.144 -26.8875 46.632 -26.8875 48.696C-26.8875 50.744 -25.3035 52.136 -23.1275 52.136C-20.9835 52.136 -19.3995 50.744 -19.3995 48.68C-19.3995 46.632 -20.9835 45.144 -23.1435 45.144ZM-23.1435 46.344C-21.7515 46.344 -20.8555 47.32 -20.8555 48.68C-20.8555 50.024 -21.7515 50.936 -23.1275 50.936C-24.4875 50.936 -25.4315 50.008 -25.4315 48.664C-25.4315 47.32 -24.5035 46.344 -23.1435 46.344ZM-1.76375 52.136V44.136H-3.18775V52.136H-1.76375ZM-1.76375 57.928V52.968H-10.9637V57.928H-1.76375ZM-3.18775 56.808H-9.55575V54.088H-3.18775V56.808ZM-4.77175 50.568C-6.37175 50.008 -8.24375 48.328 -8.24375 46.008V44.712H-9.69975V46.072C-9.69975 48.36 -11.3637 50.152 -13.3317 51L-12.4677 52.088C-10.8677 51.304 -9.37975 49.832 -8.96375 48.392C-8.37175 49.784 -6.85175 51.096 -5.60375 51.656L-4.77175 50.568ZM13.632 51.144V49.96H11.408V44.136H9.984V58.12H11.408V51.144H13.632ZM6.784 46.2V45.048H2.608V46.2H6.784ZM8.816 48.6V47.464H0.528V48.6H8.816ZM8.032 52.344C8.032 50.664 6.72 49.384 4.736 49.384C2.752 49.384 1.424 50.696 1.424 52.344C1.424 54.024 2.752 55.272 4.736 55.272C6.72 55.272 8.032 53.992 8.032 52.344ZM6.64 52.344C6.64 53.368 5.888 54.088 4.736 54.088C3.632 54.088 2.848 53.368 2.848 52.344C2.848 51.304 3.648 50.568 4.736 50.568C5.824 50.568 6.64 51.304 6.64 52.344ZM27.0758 52.408V51.256H14.4518V52.408H27.0758ZM25.7478 57.816V56.648H17.5398V53.672H16.1318V57.816H25.7478ZM25.6838 49.608V48.456H17.5878V44.712H16.1798V49.608H25.6838Z" fill="#D4B9EC"/>
<circle cx="416" cy="52" r="52" fill="#D4B9EC" fill-opacity="0.15"/>
<path d="M414.236 58.12V44.136H412.812V58.12H414.236ZM410.14 45.624H403.404V46.824H408.604C408.348 49.832 406.076 52.76 402.78 54.344L403.644 55.416C407.468 53.336 410.06 50.072 410.14 45.624ZM422.384 50.392V44.824H421.072V46.44H419.136V44.824H417.808V50.392H422.384ZM421.072 49.272H419.136V47.56H421.072V49.272ZM428.016 50.392V44.824H426.704V46.44H424.736V44.824H423.408V50.392H428.016ZM426.704 49.272H424.736V47.56H426.704V49.272ZM429.232 52.68V51.528H416.608V52.68H429.232ZM427.728 57.704V56.568H419.648V53.832H418.24V57.704H427.728Z" fill="#D4B9EC"/>
<circle cx="52" cy="142" r="52" fill="#D4B9EC" fill-opacity="0.15"/>
<path d="M43.4264 147.896V146.728H34.7064V145.736H42.8984V142.584H33.2664V143.736H41.4904V144.664H33.2984V147.896H43.4264ZM43.8264 138.552C41.9224 138.392 39.5064 137.528 38.9944 135.96H43.2184V134.824H33.0584V135.96H37.3464C36.8824 137.544 34.7064 138.376 32.5624 138.552L33.1544 139.656C35.4584 139.352 37.5704 138.328 38.1464 137.016C38.8824 138.296 41.0424 139.352 43.1864 139.656L43.8264 138.552ZM44.4664 141.576V140.408H31.8424V141.576H44.4664ZM55.7341 140.92V148.12H57.1421V134.136H55.7341V139.736H52.7261V140.92H55.7341ZM52.6941 135.624H46.2781V136.824H51.1901C50.9341 139.832 48.9021 142.792 45.5741 144.36L46.4541 145.448C50.2621 143.368 52.5981 140.072 52.6941 135.624ZM70.6499 137.336C70.6499 135.64 68.8419 134.6 65.8339 134.6C62.8099 134.6 61.0499 135.64 61.0499 137.336C61.0499 139.064 62.8099 140.088 65.8339 140.088C68.8419 140.088 70.6499 139.064 70.6499 137.336ZM66.6179 145.096V142.376H72.1539V141.224H59.5299V142.376H65.2099V145.096H66.6179ZM65.8339 135.768C67.8819 135.768 69.2099 136.328 69.2099 137.352C69.2099 138.376 67.8659 138.936 65.8179 138.936C63.8019 138.936 62.4899 138.376 62.4899 137.352C62.4899 136.328 63.8019 135.768 65.8339 135.768ZM70.6499 147.704V146.552H62.5859V143.64H61.1779V147.704H70.6499Z" fill="#D4B9EC"/>
<circle cx="468" cy="142" r="52" fill="#D4B9EC" fill-opacity="0.15"/>
<path d="M457.89 138.824V141.608H459.314V134.136H457.89V137.64H454.978V138.824H457.89ZM459.33 147.944V142.36H457.89V143.976H451.682V142.376H450.274V147.944H459.33ZM457.89 146.808H451.682V145.096H457.89V146.808ZM448.626 135V136.168H453.378C452.946 138.584 450.594 140.296 447.938 140.872L448.69 142.04C452.338 140.872 454.738 138.776 454.946 135H448.626ZM468.758 141.56V135.112H462.166V141.56H468.758ZM467.366 140.408H463.558V136.248H467.366V140.408ZM471.734 138.68V142.408H473.158V134.136H471.734V137.528H469.446V138.68H471.734ZM473.174 148.136V143.128H463.798V144.296H471.734V148.136H473.174ZM488.154 142.408V141.256H475.53V142.408H488.154ZM486.65 147.704V146.568H478.57V143.64H477.162V147.704H486.65ZM486.73 137.32C486.73 135.592 484.906 134.568 481.834 134.568C478.794 134.568 476.97 135.592 476.97 137.32C476.97 139.048 478.778 140.088 481.834 140.088C484.89 140.088 486.73 139.048 486.73 137.32ZM481.834 135.72C483.898 135.72 485.242 136.328 485.242 137.32C485.242 138.312 483.898 138.92 481.834 138.92C479.802 138.92 478.49 138.312 478.49 137.32C478.49 136.328 479.802 135.72 481.834 135.72Z" fill="#D4B9EC"/>
<circle cx="104" cy="52" r="52" fill="#D4B9EC" fill-opacity="0.15"/>
<path d="M88.3925 58.12V44.136H86.9685V58.12H88.3925ZM84.2965 45.624H77.5605V46.824H82.7605C82.5045 49.832 80.2325 52.76 76.9365 54.344L77.8005 55.416C81.6245 53.336 84.2165 50.072 84.2965 45.624ZM102.572 58.12V44.136H101.212V49.512H99.5483V44.44H98.1883V57.432H99.5483V50.664H101.212V58.12H102.572ZM92.6043 53.416V47.016H96.6523V45.864H91.1963V54.6H92.5403C94.2843 54.6 96.3003 54.472 97.5163 54.216L97.3243 53.048C96.2363 53.288 94.4923 53.416 92.8603 53.416H92.6043ZM113.904 54.904L113.808 53.784C112.848 53.912 111.392 54.008 109.92 54.088V51.288H112.992V50.136H107.024V46.632H112.912V45.48H105.616V51.288H108.512V54.136C107.136 54.184 105.76 54.2 104.624 54.2L104.832 55.4C105.824 55.4 107.856 55.352 109.392 55.272C111.104 55.176 112.736 55.048 113.904 54.904ZM116.176 58.12V44.136H114.768V58.12H116.176ZM131.076 52.408V51.256H118.452V52.408H131.076ZM129.748 57.816V56.648H121.54V53.672H120.132V57.816H129.748ZM129.684 49.608V48.456H121.588V44.712H120.18V49.608H129.684Z" fill="#D4B9EC"/>
<circle cx="520" cy="52" r="52" fill="#D4B9EC" fill-opacity="0.15"/>
<path d="M503.122 45.32C501.026 45.32 500.034 47.4 500.034 50.12C500.034 52.856 501.026 54.952 503.122 54.952C505.202 54.952 506.194 52.856 506.194 50.136C506.194 47.4 505.202 45.32 503.122 45.32ZM511.65 58.12V44.136H510.29V49.736H508.754V44.408H507.394V57.464H508.754V50.888H510.29V58.12H511.65ZM504.834 50.136C504.834 52.28 504.242 53.768 503.122 53.768C502.002 53.768 501.426 52.28 501.426 50.136C501.426 48.008 502.002 46.52 503.122 46.52C504.242 46.52 504.834 48.008 504.834 50.136ZM524.326 48.024V46.92H516.79V45.832H524.662V44.696H515.382V50.248H524.758V49.096H516.79V48.024H524.326ZM525.414 57.032C523.046 56.84 520.726 55.208 520.726 53.592V53.16H519.254V53.592C519.254 55.24 517.062 56.84 514.534 57L515.238 58.12C517.366 57.8 519.446 56.504 519.974 55.352C520.614 56.536 522.726 57.864 524.726 58.168L525.414 57.032ZM526.31 52.408V51.256H513.686V52.408H526.31ZM540.426 50.024V48.824H538.33V44.136H536.922V54.44H538.33V50.024H540.426ZM538.81 57.704V56.568H530.89V54.04H529.482V57.704H538.81ZM533.514 45.72V44.568H529.45V45.72H533.514ZM535.658 47.816V46.68H527.45V47.816H535.658ZM534.874 50.984C534.874 49.4 533.466 48.472 531.562 48.472C529.674 48.472 528.266 49.4 528.266 50.984C528.266 52.536 529.69 53.48 531.562 53.48C533.466 53.48 534.874 52.52 534.874 50.984ZM533.466 50.984C533.466 51.832 532.586 52.344 531.562 52.344C530.554 52.344 529.674 51.832 529.674 50.984C529.674 50.088 530.554 49.608 531.562 49.608C532.586 49.608 533.466 50.088 533.466 50.984Z" fill="#D4B9EC"/>
<circle cx="156" cy="142" r="52" fill="#D4B9EC" fill-opacity="0.15"/>
<path d="M140.473 145.416C140.473 143.752 138.761 142.696 135.705 142.696C132.697 142.696 130.953 143.752 130.953 145.416C130.953 147.08 132.697 148.12 135.705 148.12C138.761 148.12 140.473 147.08 140.473 145.416ZM135.705 143.848C137.817 143.848 139.033 144.44 139.033 145.416C139.033 146.392 137.817 146.968 135.705 146.968C133.657 146.968 132.424 146.392 132.424 145.416C132.424 144.44 133.657 143.848 135.705 143.848ZM136.057 140.712H138.969V142.792H140.393V134.136H138.969V136.744H136.217V137.88H138.969V139.576H136.057V140.712ZM136.041 135.208H129.673V136.376H134.473C134.025 138.776 131.721 140.792 128.985 141.496L129.801 142.648C133.481 141.384 135.849 138.84 136.041 135.208ZM154.3 148.12V134.136H152.876V148.12H154.3ZM143.26 140.12C143.26 142.904 144.38 145.08 146.86 145.08C149.34 145.08 150.444 142.904 150.444 140.136C150.444 137.352 149.34 135.192 146.86 135.192C144.38 135.192 143.26 137.352 143.26 140.12ZM149.036 140.136C149.036 142.296 148.3 143.848 146.86 143.848C145.436 143.848 144.7 142.296 144.7 140.136C144.7 137.976 145.436 136.408 146.86 136.408C148.3 136.408 149.036 137.976 149.036 140.136ZM169.232 146.344V145.192H163.6V142.984H168.048V141.832H159.536V139.64H167.664V135.288H158.096V136.44H166.256V138.488H158.128V142.984H162.176V145.192H156.608V146.344H169.232ZM181.572 137.336C181.572 135.64 179.764 134.6 176.756 134.6C173.732 134.6 171.972 135.64 171.972 137.336C171.972 139.064 173.732 140.088 176.756 140.088C179.764 140.088 181.572 139.064 181.572 137.336ZM177.54 145.096V142.376H183.076V141.224H170.452V142.376H176.132V145.096H177.54ZM176.756 135.768C178.804 135.768 180.132 136.328 180.132 137.352C180.132 138.376 178.788 138.936 176.74 138.936C174.724 138.936 173.412 138.376 173.412 137.352C173.412 136.328 174.724 135.768 176.756 135.768ZM181.572 147.704V146.552H173.508V143.64H172.1V147.704H181.572Z" fill="#D4B9EC"/>
<circle cx="572" cy="142" r="52" fill="#D4B9EC" fill-opacity="0.15"/>
<path d="M558.37 137.256L556.994 137.096L556.706 141.48H556.418L554.866 141.528L554.61 137.112L553.218 137.288L553.602 141.56H551.81L552.05 142.776C553.346 142.776 554.834 142.728 556.258 142.664C557.794 142.584 559.026 142.472 560.018 142.328L559.89 141.224C559.378 141.32 558.754 141.368 557.954 141.416L558.37 137.256ZM559.618 137.96H561.89V139.544H559.618V140.664H561.89V144.296H563.314V134.136H561.89V136.84H559.618V137.96ZM563.602 147.688V146.536H555.538V143.544H554.114V147.688H563.602ZM559.57 136.44V135.304H552.21V136.44H559.57ZM578.582 139.4V138.216H576.486V134.136H575.078V144.296H576.486V139.4H578.582ZM576.95 147.672V146.52H569.046V143.288H567.638V147.672H576.95ZM569.622 135.144C567.462 135.144 565.878 136.632 565.878 138.696C565.878 140.744 567.462 142.136 569.638 142.136C571.782 142.136 573.366 140.744 573.366 138.68C573.366 136.632 571.782 135.144 569.622 135.144ZM569.622 136.344C571.014 136.344 571.91 137.32 571.91 138.68C571.91 140.024 571.014 140.936 569.638 140.936C568.278 140.936 567.334 140.008 567.334 138.664C567.334 137.32 568.262 136.344 569.622 136.344ZM592.426 140.024V138.824H590.33V134.136H588.922V144.44H590.33V140.024H592.426ZM590.81 147.704V146.568H582.89V144.04H581.482V147.704H590.81ZM585.514 135.72V134.568H581.45V135.72H585.514ZM587.658 137.816V136.68H579.45V137.816H587.658ZM586.874 140.984C586.874 139.4 585.466 138.472 583.562 138.472C581.674 138.472 580.266 139.4 580.266 140.984C580.266 142.536 581.69 143.48 583.562 143.48C585.466 143.48 586.874 142.52 586.874 140.984ZM585.466 140.984C585.466 141.832 584.586 142.344 583.562 142.344C582.554 142.344 581.674 141.832 581.674 140.984C581.674 140.088 582.554 139.608 583.562 139.608C584.586 139.608 585.466 140.088 585.466 140.984Z" fill="#D4B9EC"/>
<circle cx="208" cy="52" r="52" fill="#D4B9EC" fill-opacity="0.15"/>
<path d="M200.722 48.856V47.688H198.642V44.136H197.218V52.184H198.642V48.856H200.722ZM198.642 57.928V52.888H189.778V57.928H198.642ZM197.234 56.808H191.186V54.024H197.234V56.808ZM188.434 45.176V46.36H193.202C192.818 48.776 190.306 50.696 187.714 51.208L188.45 52.344C192.066 51.368 194.61 48.904 194.77 45.176H188.434ZM208.822 50.696H211.734V52.392H213.158V44.136H211.734V46.632H208.998V47.816H211.734V49.528H208.822V50.696ZM208.79 45.064H202.47V46.248H207.222C206.806 48.632 204.406 50.568 201.718 51.144L202.55 52.296C206.134 51.16 208.55 48.792 208.79 45.064ZM213.174 58.136V53.112H203.798V54.28H211.734V58.136H213.174ZM228.426 50.024V48.824H226.33V44.136H224.922V54.44H226.33V50.024H228.426ZM226.81 57.704V56.568H218.89V54.04H217.482V57.704H226.81ZM221.514 45.72V44.568H217.45V45.72H221.514ZM223.658 47.816V46.68H215.45V47.816H223.658ZM222.874 50.984C222.874 49.4 221.466 48.472 219.562 48.472C217.674 48.472 216.266 49.4 216.266 50.984C216.266 52.536 217.69 53.48 219.562 53.48C221.466 53.48 222.874 52.52 222.874 50.984ZM221.466 50.984C221.466 51.832 220.586 52.344 219.562 52.344C218.554 52.344 217.674 51.832 217.674 50.984C217.674 50.088 218.554 49.608 219.562 49.608C220.586 49.608 221.466 50.088 221.466 50.984Z" fill="#D4B9EC"/>
<circle cx="624" cy="52" r="52" fill="#D4B9EC" fill-opacity="0.15"/>
<path d="M615.282 58.12V44.136H613.874V58.12H615.282ZM611.282 54.552V45.544H604.578V54.552H611.282ZM609.874 53.384H605.986V46.696H609.874V53.384ZM630.582 49.4V48.216H628.486V44.136H627.078V54.296H628.486V49.4H630.582ZM628.95 57.672V56.52H621.046V53.288H619.638V57.672H628.95ZM621.622 45.144C619.462 45.144 617.878 46.632 617.878 48.696C617.878 50.744 619.462 52.136 621.638 52.136C623.782 52.136 625.366 50.744 625.366 48.68C625.366 46.632 623.782 45.144 621.622 45.144ZM621.622 46.344C623.014 46.344 623.91 47.32 623.91 48.68C623.91 50.024 623.014 50.936 621.638 50.936C620.278 50.936 619.334 50.008 619.334 48.664C619.334 47.32 620.262 46.344 621.622 46.344ZM644.426 50.024V48.824H642.33V44.136H640.922V54.44H642.33V50.024H644.426ZM642.81 57.704V56.568H634.89V54.04H633.482V57.704H642.81ZM637.514 45.72V44.568H633.45V45.72H637.514ZM639.658 47.816V46.68H631.45V47.816H639.658ZM638.874 50.984C638.874 49.4 637.466 48.472 635.562 48.472C633.674 48.472 632.266 49.4 632.266 50.984C632.266 52.536 633.69 53.48 635.562 53.48C637.466 53.48 638.874 52.52 638.874 50.984ZM637.466 50.984C637.466 51.832 636.586 52.344 635.562 52.344C634.554 52.344 633.674 51.832 633.674 50.984C633.674 50.088 634.554 49.608 635.562 49.608C636.586 49.608 637.466 50.088 637.466 50.984Z" fill="#D4B9EC"/>
<circle cx="260" cy="142" r="52" fill="#D4B9EC" fill-opacity="0.15"/>
<path d="M252.722 138.52V137.336H250.642V134.136H249.218V141.608H250.642V138.52H252.722ZM250.642 147.928V142.344H249.234V144.024H243.17V142.36H241.762V147.928H250.642ZM249.234 146.792H243.17V145.128H249.234V146.792ZM241.762 139.88V136.2H246.626V135.048H240.354V141.032H241.778C244.242 141.016 246.514 140.84 247.986 140.536C247.906 140.152 247.858 139.8 247.778 139.416C246.29 139.736 243.858 139.88 241.762 139.88ZM266.566 138.52V137.336H264.486V134.136H263.062V141.608H264.486V138.52H266.566ZM264.486 147.928V142.344H263.078V144.024H257.014V142.36H255.606V147.928H264.486ZM263.078 146.792H257.014V145.128H263.078V146.792ZM255.606 139.88V136.2H260.47V135.048H254.198V141.032H255.622C258.086 141.016 260.358 140.84 261.83 140.536C261.75 140.152 261.702 139.8 261.622 139.416C260.134 139.736 257.702 139.88 255.606 139.88ZM280.426 140.024V138.824H278.33V134.136H276.922V144.44H278.33V140.024H280.426ZM278.81 147.704V146.568H270.89V144.04H269.482V147.704H278.81ZM273.514 135.72V134.568H269.45V135.72H273.514ZM275.658 137.816V136.68H267.45V137.816H275.658ZM274.874 140.984C274.874 139.4 273.466 138.472 271.562 138.472C269.674 138.472 268.266 139.4 268.266 140.984C268.266 142.536 269.69 143.48 271.562 143.48C273.466 143.48 274.874 142.52 274.874 140.984ZM273.466 140.984C273.466 141.832 272.586 142.344 271.562 142.344C270.554 142.344 269.674 141.832 269.674 140.984C269.674 140.088 270.554 139.608 271.562 139.608C272.586 139.608 273.466 140.088 273.466 140.984Z" fill="#D4B9EC"/>
<circle cx="676" cy="142" r="52" fill="#D4B9EC" fill-opacity="0.15"/>
<path d="M656.002 140.072C656.002 142.84 657.122 145.016 659.586 145.016C662.082 145.016 663.186 142.84 663.186 140.088C663.186 137.304 662.082 135.128 659.586 135.128C657.122 135.128 656.002 137.304 656.002 140.072ZM661.778 140.088C661.778 142.232 661.026 143.8 659.586 143.8C658.146 143.8 657.426 142.232 657.426 140.088C657.426 137.912 658.146 136.344 659.586 136.344C661.026 136.344 661.778 137.912 661.778 140.088ZM668.866 137.576H666.642V134.136H665.234V148.12H666.642V143.128H668.866V141.96H666.642V138.776H668.866V137.576ZM682.31 142.168V141.032H676.71V138.92H675.286V141.032H669.686V142.168H682.31ZM681.734 138.488C679.702 138.328 676.742 136.744 676.742 134.728V134.296H675.27V134.728C675.27 136.728 672.646 138.248 670.31 138.488L670.934 139.592C673.206 139.208 675.398 137.848 675.99 136.424C676.678 137.848 678.95 139.224 681.094 139.592L681.734 138.488ZM671.03 143.56V144.712H679.334V148.184H680.742V143.56H671.03ZM696.426 140.024V138.824H694.33V134.136H692.922V144.44H694.33V140.024H696.426ZM694.81 147.704V146.568H686.89V144.04H685.482V147.704H694.81ZM689.514 135.72V134.568H685.45V135.72H689.514ZM691.658 137.816V136.68H683.45V137.816H691.658ZM690.874 140.984C690.874 139.4 689.466 138.472 687.562 138.472C685.674 138.472 684.266 139.4 684.266 140.984C684.266 142.536 685.69 143.48 687.562 143.48C689.466 143.48 690.874 142.52 690.874 140.984ZM689.466 140.984C689.466 141.832 688.586 142.344 687.562 142.344C686.554 142.344 685.674 141.832 685.674 140.984C685.674 140.088 686.554 139.608 687.562 139.608C688.586 139.608 689.466 140.088 689.466 140.984Z" fill="#D4B9EC"/>
<circle cx="312" cy="52" r="52" fill="#D4B9EC" fill-opacity="0.15"/>
<path d="M303.378 58.12V44.136H301.954V49.048H298.834V50.248H301.954V58.12H303.378ZM300.258 53.736C298.29 52.52 296.722 50.312 296.722 47.688V45.336H295.266V47.752C295.266 50.328 293.778 52.76 291.666 54.088L292.562 55.128C294.13 54.088 295.522 52.312 296.002 50.6C296.53 52.232 298.162 53.976 299.41 54.792L300.258 53.736ZM318.31 50.984V49.832H305.686V50.984H318.31ZM317.158 58.008V56.84H308.646V55.576H316.694V52.184H307.206V53.336H315.27V54.504H307.222V58.008H317.158ZM316.838 48.712V47.576H308.758V44.488H307.35V48.712H316.838ZM332.426 50.024V48.824H330.33V44.136H328.922V54.44H330.33V50.024H332.426ZM330.81 57.704V56.568H322.89V54.04H321.482V57.704H330.81ZM325.514 45.72V44.568H321.45V45.72H325.514ZM327.658 47.816V46.68H319.45V47.816H327.658ZM326.874 50.984C326.874 49.4 325.466 48.472 323.562 48.472C321.674 48.472 320.266 49.4 320.266 50.984C320.266 52.536 321.69 53.48 323.562 53.48C325.466 53.48 326.874 52.52 326.874 50.984ZM325.466 50.984C325.466 51.832 324.586 52.344 323.562 52.344C322.554 52.344 321.674 51.832 321.674 50.984C321.674 50.088 322.554 49.608 323.562 49.608C324.586 49.608 325.466 50.088 325.466 50.984Z" fill="#D4B9EC"/>
<circle cx="364" cy="142" r="52" fill="#D4B9EC" fill-opacity="0.15"/>
<path d="M353.89 140.92V148.12H355.298V134.136H353.89V139.736H350.882V140.92H353.89ZM350.85 135.624H344.434V136.824H349.346C349.09 139.832 347.058 142.792 343.73 144.36L344.61 145.448C348.418 143.368 350.754 140.072 350.85 135.624ZM368.726 139.752V134.504H367.302V136.072H360.71V134.52H359.286V139.752H368.726ZM359.062 143.64V144.808H367.382V148.184H368.79V143.64H364.678V142.088H370.31V140.936H357.686V142.088H363.254V143.64H359.062ZM367.302 138.6H360.71V137.208H367.302V138.6ZM384.426 140.024V138.824H382.33V134.136H380.922V144.44H382.33V140.024H384.426ZM382.81 147.704V146.568H374.89V144.04H373.482V147.704H382.81ZM377.514 135.72V134.568H373.45V135.72H377.514ZM379.658 137.816V136.68H371.45V137.816H379.658ZM378.874 140.984C378.874 139.4 377.466 138.472 375.562 138.472C373.674 138.472 372.266 139.4 372.266 140.984C372.266 142.536 373.69 143.48 375.562 143.48C377.466 143.48 378.874 142.52 378.874 140.984ZM377.466 140.984C377.466 141.832 376.586 142.344 375.562 142.344C374.554 142.344 373.674 141.832 373.674 140.984C373.674 140.088 374.554 139.608 375.562 139.608C376.586 139.608 377.466 140.088 377.466 140.984Z" fill="#D4B9EC"/>
<circle cy="232" r="52" fill="#D4B9EC" fill-opacity="0.15"/>
<path d="M-11.9976 234.28C-13.7736 233.48 -15.4376 231.624 -15.4376 228.936V228.6H-12.3496V227.448H-20.0136V228.6H-16.8936V228.952C-16.8936 231.64 -18.5736 233.672 -20.5096 234.664L-19.5976 235.688C-18.0456 234.872 -16.5416 233.112 -16.1576 231.64C-15.7256 233.08 -14.2216 234.648 -12.8296 235.352L-11.9976 234.28ZM-7.16562 231.016V229.832H-9.35762V224.136H-10.7656V238.12H-9.35762V231.016H-7.16562ZM-14.1256 226.184V225.016H-18.2536V226.184H-14.1256ZM4.72613 229.992V224.568H3.31813V226.232H-3.32187V224.584H-4.74587V229.992H4.72613ZM0.758125 235.16V232.584H6.31013V231.432H-6.31387V232.584H-0.649875V235.16H0.758125ZM4.83813 237.704V236.552H-3.32187V233.864H-4.74587V237.704H4.83813ZM3.31813 228.84H-3.32187V227.352H3.31813V228.84ZM20.4259 230.024V228.824H18.3299V224.136H16.9219V234.44H18.3299V230.024H20.4259ZM18.8099 237.704V236.568H10.8899V234.04H9.48188V237.704H18.8099ZM13.5139 225.72V224.568H9.44988V225.72H13.5139ZM15.6579 227.816V226.68H7.44987V227.816H15.6579ZM14.8739 230.984C14.8739 229.4 13.4659 228.472 11.5619 228.472C9.67388 228.472 8.26588 229.4 8.26588 230.984C8.26588 232.536 9.68988 233.48 11.5619 233.48C13.4659 233.48 14.8739 232.52 14.8739 230.984ZM13.4659 230.984C13.4659 231.832 12.5859 232.344 11.5619 232.344C10.5539 232.344 9.67388 231.832 9.67388 230.984C9.67388 230.088 10.5539 229.608 11.5619 229.608C12.5859 229.608 13.4659 230.088 13.4659 230.984Z" fill="#D4B9EC"/>
<circle cx="416" cy="232" r="52" fill="#D4B9EC" fill-opacity="0.15"/>
<path d="M407.922 231.864C405.874 231.688 403.202 230.2 402.898 228.456H407.234V227.32H397.058V228.456H401.41C401.122 230.2 398.594 231.64 396.354 231.88L396.978 233.032C399.298 232.648 401.49 231.336 402.146 229.832C402.85 231.272 405.106 232.648 407.33 233.048L407.922 231.864ZM408.466 236.344V235.192H402.834V232.152H401.41V235.192H395.842V236.344H408.466ZM404.45 225.864V224.712H399.842V225.864H404.45ZM421.286 226.648V225.512H410.726V226.648H415.254V226.824C415.254 229.112 412.342 231.032 410.15 231.368L410.854 232.536C413.03 231.992 415.382 230.408 415.99 228.744C416.71 230.376 418.998 231.96 421.158 232.536L421.862 231.416C419.766 231.032 416.742 229.08 416.742 226.824V226.648H421.286ZM422.31 236.344V235.192H416.678V231.912H415.254V235.192H409.686V236.344H422.31ZM436.426 230.024V228.824H434.33V224.136H432.922V234.44H434.33V230.024H436.426ZM434.81 237.704V236.568H426.89V234.04H425.482V237.704H434.81ZM429.514 225.72V224.568H425.45V225.72H429.514ZM431.658 227.816V226.68H423.45V227.816H431.658ZM430.874 230.984C430.874 229.4 429.466 228.472 427.562 228.472C425.674 228.472 424.266 229.4 424.266 230.984C424.266 232.536 425.69 233.48 427.562 233.48C429.466 233.48 430.874 232.52 430.874 230.984ZM429.466 230.984C429.466 231.832 428.586 232.344 427.562 232.344C426.554 232.344 425.674 231.832 425.674 230.984C425.674 230.088 426.554 229.608 427.562 229.608C428.586 229.608 429.466 230.088 429.466 230.984Z" fill="#D4B9EC"/>
<circle cx="104" cy="232" r="52" fill="#D4B9EC" fill-opacity="0.15"/>
<path d="M96.4664 236.088V234.936H83.8424V236.088H96.4664ZM94.7864 225.72H85.1544V226.856H93.3464C93.3464 228.968 93.1064 232.408 92.7544 233.752L94.1304 233.928C94.5464 232.12 94.7864 228.904 94.7864 225.72ZM106.582 233.192C104.886 233.512 102.182 233.624 100.23 233.624H99.8141V230.456H105.046V225.4H98.3421V226.552H103.638V229.32H98.4061V234.824H100.15C102.982 234.792 105.27 234.6 106.726 234.36L106.582 233.192ZM107.798 224.136V238.12H109.222V224.136H107.798ZM122.65 227.336C122.65 225.64 120.842 224.6 117.834 224.6C114.81 224.6 113.05 225.64 113.05 227.336C113.05 229.064 114.81 230.088 117.834 230.088C120.842 230.088 122.65 229.064 122.65 227.336ZM118.618 235.096V232.376H124.154V231.224H111.53V232.376H117.21V235.096H118.618ZM117.834 225.768C119.882 225.768 121.21 226.328 121.21 227.352C121.21 228.376 119.866 228.936 117.818 228.936C115.802 228.936 114.49 228.376 114.49 227.352C114.49 226.328 115.802 225.768 117.834 225.768ZM122.65 237.704V236.552H114.586V233.64H113.178V237.704H122.65Z" fill="#D4B9EC"/>
<circle cx="520" cy="232" r="52" fill="#D4B9EC" fill-opacity="0.15"/>
<path d="M504.729 238.12V224.136H503.369V229.832H501.833V224.44H500.489V237.432H501.833V230.968H503.369V238.12H504.729ZM499.881 233.784C498.361 232.84 497.081 230.888 497.081 228.136V227.016H499.673V225.848H493.017V227.016H495.689V228.184C495.689 230.92 494.409 233.016 492.665 234.136L493.561 235.112C494.841 234.264 496.073 232.664 496.377 231.192C496.761 232.584 498.057 234.136 499.017 234.792L499.881 233.784ZM518.204 238.12V224.136H516.796V238.12H518.204ZM514.204 234.552V225.544H507.5V234.552H514.204ZM512.796 233.384H508.908V226.696H512.796V233.384ZM532.08 232.136V224.136H530.656V232.136H532.08ZM524.592 224.904C522.576 224.904 520.96 226.296 520.96 228.296C520.96 230.312 522.592 231.592 524.592 231.592C526.608 231.592 528.224 230.296 528.224 228.296C528.224 226.28 526.592 224.904 524.592 224.904ZM524.592 226.12C525.952 226.12 526.8 227.048 526.8 228.296C526.8 229.528 525.904 230.424 524.592 230.424C523.312 230.424 522.384 229.528 522.384 228.264C522.384 227.048 523.296 226.12 524.592 226.12ZM532.512 238.184L533.392 237.176C532.032 236.68 530.704 235.128 530.704 233.4V232.744H529.312V233.448C529.312 235.16 528.144 236.664 526.576 237.416L527.488 238.36C528.64 237.832 529.712 236.552 530.016 235.544C530.368 236.52 531.584 237.736 532.512 238.184ZM527.504 235.992C526.464 235.592 525.536 234.632 525.536 233.256V232.744H524.144V233.336C524.144 235.064 522.832 236.552 521.376 237.208L522.208 238.2C523.376 237.656 524.608 236.328 524.928 235.272C525.232 235.944 525.936 236.632 526.544 236.936L527.504 235.992ZM547.076 232.408V231.256H534.452V232.408H547.076ZM545.748 237.816V236.648H537.54V233.672H536.132V237.816H545.748ZM545.684 229.608V228.456H537.588V224.712H536.18V229.608H545.684Z" fill="#D4B9EC"/>
<circle cx="208" cy="232" r="52" fill="#D4B9EC" fill-opacity="0.15"/>
<path d="M199.314 234.296V224.136H197.89V234.296H199.314ZM196.306 231.016C194.658 230.44 192.802 228.696 192.802 226.424V224.92H191.362V226.488C191.362 228.696 189.746 230.68 187.842 231.48L188.706 232.584C190.146 231.928 191.666 230.312 192.098 228.824C192.69 230.248 194.194 231.576 195.49 232.12L196.306 231.016ZM199.618 237.72V236.568H191.618V233.352H190.194V237.72H199.618ZM210.118 233.864C210.038 233.48 209.974 233.096 209.91 232.696C208.262 233.128 205.19 233.32 203.526 233.32V225.512H202.118V234.536C202.534 234.536 202.966 234.536 203.414 234.52C205.366 234.488 208.518 234.28 210.118 233.864ZM212.486 224.136H211.062V238.12H212.486V230.808H214.71V229.608H212.486V224.136ZM228.154 232.408V231.256H215.53V232.408H228.154ZM226.826 237.816V236.648H218.618V233.672H217.21V237.816H226.826ZM226.762 229.608V228.456H218.666V224.712H217.258V229.608H226.762Z" fill="#D4B9EC"/>
<circle cx="624" cy="232" r="52" fill="#D4B9EC" fill-opacity="0.15"/>
<path d="M620.812 228.824V232.728H622.236V224.136H620.812V227.656H618.54V228.824H620.812ZM617.852 231.576V225.272H611.276V231.576H617.852ZM616.444 230.44H612.684V226.392H616.444V230.44ZM622.316 235.4C622.316 233.736 620.604 232.664 617.564 232.664C614.54 232.664 612.796 233.736 612.796 235.4C612.796 237.08 614.54 238.12 617.564 238.12C620.604 238.12 622.316 237.08 622.316 235.4ZM617.564 233.848C619.66 233.848 620.876 234.424 620.876 235.4C620.876 236.376 619.66 236.952 617.564 236.952C615.5 236.952 614.268 236.376 614.268 235.4C614.268 234.424 615.5 233.848 617.564 233.848ZM637.504 230.024V228.824H635.408V224.136H634V234.44H635.408V230.024H637.504ZM635.888 237.704V236.568H627.968V234.04H626.56V237.704H635.888ZM630.592 225.72V224.568H626.528V225.72H630.592ZM632.736 227.816V226.68H624.528V227.816H632.736ZM631.952 230.984C631.952 229.4 630.544 228.472 628.64 228.472C626.752 228.472 625.344 229.4 625.344 230.984C625.344 232.536 626.768 233.48 628.64 233.48C630.544 233.48 631.952 232.52 631.952 230.984ZM630.544 230.984C630.544 231.832 629.664 232.344 628.64 232.344C627.632 232.344 626.752 231.832 626.752 230.984C626.752 230.088 627.632 229.608 628.64 229.608C629.664 229.608 630.544 230.088 630.544 230.984Z" fill="#D4B9EC"/>
<circle cx="312" cy="232" r="52" fill="#D4B9EC" fill-opacity="0.15"/>
<path d="M302.962 237.704V236.568H294.802V233.752H293.378V237.704H302.962ZM304.466 232.472V231.32H291.842V232.472H304.466ZM302.962 229.672V228.52H294.834V225.88H302.834V224.728H293.41V229.672H302.962ZM316.806 237.704V236.568H308.646V233.752H307.222V237.704H316.806ZM318.31 232.472V231.32H305.686V232.472H318.31ZM316.806 229.672V228.52H308.678V225.88H316.678V224.728H307.254V229.672H316.806ZM332.426 230.024V228.824H330.33V224.136H328.922V234.44H330.33V230.024H332.426ZM330.81 237.704V236.568H322.89V234.04H321.482V237.704H330.81ZM325.514 225.72V224.568H321.45V225.72H325.514ZM327.658 227.816V226.68H319.45V227.816H327.658ZM326.874 230.984C326.874 229.4 325.466 228.472 323.562 228.472C321.674 228.472 320.266 229.4 320.266 230.984C320.266 232.536 321.69 233.48 323.562 233.48C325.466 233.48 326.874 232.52 326.874 230.984ZM325.466 230.984C325.466 231.832 324.586 232.344 323.562 232.344C322.554 232.344 321.674 231.832 321.674 230.984C321.674 230.088 322.554 229.608 323.562 229.608C324.586 229.608 325.466 230.088 325.466 230.984Z" fill="#D4B9EC"/>
</g>
<defs>
<clipPath id="clip0_1750_15409">
<rect width="660" height="284" fill="white"/>
</clipPath>
</defs>
</svg>
