<svg width="24" height="24" viewBox="0 0 24 24" fill="none" xmlns="http://www.w3.org/2000/svg">
<circle cx="12" cy="12" r="12" fill="white"/>
<path fill-rule="evenodd" clip-rule="evenodd" d="M7.85355 7.14645C7.65829 6.95118 7.34171 6.95118 7.14645 7.14645C6.95118 7.34171 6.95118 7.65829 7.14645 7.85355L11.2921 11.9992L7.14645 16.1448C6.95118 16.3401 6.95118 16.6566 7.14645 16.8519C7.34171 17.0472 7.65829 17.0472 7.85355 16.8519L11.9992 12.7063L16.1446 16.8518C16.3399 17.047 16.6565 17.047 16.8518 16.8518C17.047 16.6565 17.047 16.3399 16.8518 16.1446L12.7063 11.9992L16.8518 7.85371C17.047 7.65845 17.047 7.34187 16.8518 7.14661C16.6565 6.95134 16.3399 6.95134 16.1446 7.14661L11.9992 11.2921L7.85355 7.14645Z" fill="#1A1A1A"/>
</svg>
