<svg width="24" height="24" viewBox="0 0 24 24" fill="none" xmlns="http://www.w3.org/2000/svg">
<path fill-rule="evenodd" clip-rule="evenodd" d="M4.08335 1.75C3.46452 1.75 2.87104 1.99583 2.43345 2.43341C1.99587 2.87099 1.75004 3.46448 1.75004 4.08331V17.7978C1.74999 17.8032 1.74999 17.8087 1.75004 17.8141V19.9164C1.75004 20.5352 1.99587 21.1287 2.43345 21.5663C2.87103 22.0039 3.46452 22.2497 4.08335 22.2497H19.9165C20.5353 22.2497 21.1288 22.0039 21.5664 21.5663C22.0039 21.1287 22.2498 20.5352 22.2498 19.9164V18.3362C22.2498 18.3343 22.2498 18.3324 22.2498 18.3306V4.08331C22.2498 3.46448 22.0039 2.87099 21.5664 2.43341C21.1288 1.99583 20.5353 1.75 19.9165 1.75H4.08335ZM20.7498 16.6377V4.08331C20.7498 3.8623 20.662 3.65035 20.5057 3.49407C20.3494 3.33779 20.1375 3.25 19.9165 3.25H4.08335C3.86235 3.25 3.65039 3.33779 3.49412 3.49407C3.33784 3.65035 3.25004 3.8623 3.25004 4.08331V16.3054L6.2722 14.0388C6.55342 13.8278 6.9434 13.8405 7.2103 14.0693L10.4045 16.8072L15.1926 12.498C15.4789 12.2403 15.9138 12.2414 16.1988 12.5005L20.7498 16.6377ZM3.25004 18.1804V19.9164C3.25004 20.1374 3.33784 20.3494 3.49412 20.5056C3.65039 20.6619 3.86235 20.7497 4.08335 20.7497H19.9165C20.1375 20.7497 20.3494 20.6619 20.5057 20.5056C20.662 20.3494 20.7498 20.1374 20.7498 19.9164V18.6649L15.6918 14.0667L10.9183 18.3628C10.6382 18.6149 10.2146 18.62 9.9285 18.3748L6.6909 15.5997L3.25004 18.1804Z" fill="#929292"/>
<path d="M8 10C8.53043 10 9.03914 9.78929 9.41421 9.41421C9.78929 9.03914 10 8.53043 10 8C10 7.46957 9.78929 6.96086 9.41421 6.58579C9.03914 6.21071 8.53043 6 8 6C7.46957 6 6.96086 6.21071 6.58579 6.58579C6.21071 6.96086 6 7.46957 6 8C6 8.53043 6.21071 9.03914 6.58579 9.41421C6.96086 9.78929 7.46957 10 8 10V10Z" stroke="#929292" stroke-width="1.5" stroke-linecap="round" stroke-linejoin="round"/>
</svg>
