<svg width="24" height="24" viewBox="0 0 24 24" fill="none" xmlns="http://www.w3.org/2000/svg">
<path d="M8.69238 20.5848V19.8348H8.69238L8.69238 20.5848ZM8.69238 7.20068V6.45068V7.20068ZM22 6.45068C22.4142 6.45068 22.75 6.78647 22.75 7.20068C22.75 7.6149 22.4142 7.95068 22 7.95068L22 6.45068ZM16.0515 19.8348C16.4657 19.8348 16.8015 20.1706 16.8015 20.5848C16.8015 20.9991 16.4657 21.3348 16.0515 21.3348L16.0515 19.8348ZM2.7503 13.8928C2.7503 17.1745 5.41066 19.8348 8.69238 19.8348V21.3348C4.58224 21.3348 1.2503 18.0029 1.2503 13.8928H2.7503ZM8.69238 7.95068C5.41066 7.95068 2.7503 10.611 2.7503 13.8928H1.2503C1.2503 9.78262 4.58224 6.45068 8.69238 6.45068V7.95068ZM8.69238 6.45068H22L22 7.95068H8.69238V6.45068ZM8.69238 19.8348L16.0515 19.8348L16.0515 21.3348L8.69238 21.3348L8.69238 19.8348Z" fill="#1A1A1A"/>
<path d="M18.2144 3.41507L22 7.20068L18.2144 10.9863" stroke="#1A1A1A" stroke-width="1.5" stroke-linecap="round" stroke-linejoin="round"/>
</svg>
