<svg width="81" height="80" viewBox="0 0 81 80" fill="none" xmlns="http://www.w3.org/2000/svg">
<path fill-rule="evenodd" clip-rule="evenodd" d="M24.248 62.2106C23.3751 62.7186 22.5259 63.1933 21.7032 63.6332C18.3026 65.4518 15.4051 66.6491 13.1932 67.1619C12.0859 67.4187 11.2042 67.4908 10.543 67.415C9.88867 67.34 9.52887 67.1318 9.32753 66.8965C9.12618 66.6612 8.97611 66.2735 9.0031 65.6155C9.03038 64.9505 9.23798 64.0905 9.66276 63.0362C10.5113 60.9302 12.1421 58.2526 14.4645 55.1739C15.0227 54.4338 15.619 53.6731 16.2514 52.8943C18.171 56.5818 20.9187 59.7694 24.248 62.2106ZM25.1886 61.6558C21.7096 59.1924 18.864 55.8935 16.9442 52.0513C21.5132 46.5561 27.7899 40.2347 35.1336 33.9505C42.1729 27.927 49.0944 22.8773 55.0597 19.2414C58.6294 21.7512 61.5375 25.1383 63.4707 29.0894C58.9574 34.4187 52.9015 40.473 45.8664 46.493C38.5294 52.7713 31.3204 57.9916 25.1886 61.6558ZM25.1478 62.8426C16.7902 67.7617 10.4608 69.7589 8.56773 67.5466C6.67604 65.336 9.62181 59.3986 15.7642 51.9097C14.1341 48.4384 13.2231 44.5624 13.2231 40.4736C13.2231 25.597 25.283 13.5371 40.1596 13.5371C45.6836 13.5371 50.8193 15.1999 55.0933 18.0523C63.8253 12.8057 70.4823 10.6181 72.4323 12.8969C74.3832 15.1768 71.1891 21.4202 64.6498 29.2414C66.2204 32.6603 67.0962 36.4647 67.0962 40.4736C67.0962 55.3503 55.0363 67.4102 40.1596 67.4102C34.6019 67.4102 29.4373 65.727 25.1478 62.8426ZM63.9335 30.0887C65.3245 33.2684 66.0962 36.7809 66.0962 40.4736C66.0962 54.798 54.484 66.4102 40.1596 66.4102C34.9785 66.4102 30.1522 64.891 26.1018 62.2737C32.2058 58.5874 39.3073 53.4219 46.5165 47.2528C53.4268 41.3396 59.4108 35.3818 63.9335 30.0887ZM64.1711 28.2533C65.0206 27.2277 65.8102 26.2312 66.5355 25.2696C68.8579 22.191 70.4887 19.5134 71.3372 17.4073C71.762 16.353 71.9696 15.4931 71.9969 14.8281C72.0239 14.17 71.8738 13.7824 71.6725 13.5471C71.4711 13.3118 71.1113 13.1036 70.457 13.0285C69.7958 12.9527 68.9141 13.0249 67.8068 13.2816C65.5949 13.7944 62.6974 14.9918 59.2968 16.8103C58.2375 17.3768 57.1342 18.0009 55.993 18.6795C59.4178 21.1719 62.2326 24.4519 64.1711 28.2533ZM54.1467 18.628C50.111 16.0387 45.3107 14.5371 40.1596 14.5371C25.8353 14.5371 14.2231 26.1493 14.2231 40.4736C14.2231 44.2428 15.0271 47.8242 16.473 51.0557C21.0599 45.5906 27.2665 39.3664 34.4835 33.1907C41.3988 27.2732 48.215 22.279 54.1467 18.628Z" fill="#223C2D"/>
</svg>
