<svg width="24" height="24" viewBox="0 0 24 24" fill="none" xmlns="http://www.w3.org/2000/svg">
<circle cx="12" cy="12" r="12" fill="white"/>
<path fill-rule="evenodd" clip-rule="evenodd" d="M6.28309 10.2062C6.77452 7.85604 9.14997 6 12.0936 6C15.418 6 17.9992 8.35432 17.9992 11.1269C17.9992 11.8373 17.8743 12.3695 17.6524 12.834C17.4272 13.3054 17.089 13.7351 16.6192 14.2271C16.6124 14.2342 16.6058 14.2415 16.5996 14.2489C15.9314 14.9227 15.422 15.0152 14.999 14.9774C14.7583 14.9559 14.5207 14.8894 14.2508 14.8057L14.1583 14.7768L14.1583 14.7768L14.1582 14.7768C13.9249 14.7035 13.6548 14.6188 13.3866 14.5782C12.6863 14.4723 12.0397 14.7747 11.6956 15.2768C11.3336 15.8052 11.3324 16.5264 11.8778 17.0922C12.0953 17.3178 12.1408 17.4788 12.1408 17.5653C12.1408 17.6361 12.1108 17.7506 11.9262 17.8978C11.8946 17.923 11.8028 17.9712 11.6123 17.9887C11.4278 18.0057 11.1838 17.9904 10.8895 17.9249C10.3017 17.7942 9.55867 17.4734 8.7741 16.8992C6.69044 15.3741 5.47692 12.9766 6.22325 10.36C6.25089 10.3136 6.27143 10.262 6.28309 10.2062ZM5.33939 9.8449C6.01187 7.03719 8.81793 5 12.0936 5C15.8446 5 18.9992 7.68421 18.9992 11.1269C18.9992 11.9649 18.8497 12.6477 18.5548 13.265C18.2696 13.8621 17.8605 14.3716 17.3749 14.8835C17.3657 14.8948 17.356 14.9057 17.3456 14.9164C16.4785 15.8069 15.6737 16.0416 14.9101 15.9734C14.5543 15.9417 14.2281 15.8457 13.9545 15.7608L13.859 15.7311L13.859 15.7311L13.859 15.7311C13.6151 15.6549 13.4238 15.5952 13.2371 15.567C12.9077 15.5172 12.6432 15.663 12.5206 15.842C12.4159 15.9948 12.3949 16.1878 12.5978 16.3982C12.9176 16.73 13.1408 17.1265 13.1408 17.5652C13.1409 18.0197 12.9024 18.3982 12.5499 18.6795C12.313 18.8686 12.0086 18.9565 11.7039 18.9845C11.3931 19.0131 11.0427 18.9834 10.6723 18.901C9.93064 18.7361 9.06257 18.3495 8.18348 17.7061C5.8108 15.9695 4.31537 13.0965 5.31466 9.90843C5.32157 9.88642 5.32985 9.86522 5.33939 9.8449ZM11.2268 8.34679C11.2268 8.93999 10.7459 9.42087 10.1527 9.42087C9.55951 9.42087 9.07863 8.93999 9.07863 8.34679C9.07863 7.75359 9.55951 7.27271 10.1527 7.27271C10.7459 7.27271 11.2268 7.75359 11.2268 8.34679ZM13.9132 9.42087C14.5064 9.42087 14.9872 8.93999 14.9872 8.34679C14.9872 7.75359 14.5064 7.27271 13.9132 7.27271C13.32 7.27271 12.8391 7.75359 12.8391 8.34679C12.8391 8.93999 13.32 9.42087 13.9132 9.42087ZM9.32677 11.198C9.32677 11.7912 8.84589 12.2721 8.2527 12.2721C7.6595 12.2721 7.17862 11.7912 7.17862 11.198C7.17862 10.6048 7.6595 10.124 8.2527 10.124C8.84589 10.124 9.32677 10.6048 9.32677 11.198ZM15.8137 12.2721C16.4069 12.2721 16.8877 11.7912 16.8877 11.198C16.8877 10.6048 16.4069 10.124 15.8137 10.124C15.2205 10.124 14.7396 10.6048 14.7396 11.198C14.7396 11.7912 15.2205 12.2721 15.8137 12.2721Z" fill="#DFDEDE"/>
</svg>
