<svg width="24" height="25" viewBox="0 0 24 25" fill="none" xmlns="http://www.w3.org/2000/svg">
<g clip-path="url(#clip0_579_1961)">
<path d="M12 2.96606L1 12.8665H4V21.8665H11V15.8665H13V21.8665H20V12.8665H23L12 2.96606ZM12 5.65747L18 11.0579V11.8665V19.8665H15V13.8665H9V19.8665H6V11.0579L12 5.65747Z" fill="black"/>
<path d="M12 2.96606L1 12.8665H4V21.8665H11V15.8665H13V21.8665H20V12.8665H23L12 2.96606ZM12 5.65747L18 11.0579V11.8665V19.8665H15V13.8665H9V19.8665H6V11.0579L12 5.65747Z" fill="#223C2D"/>
</g>
<defs>
<clipPath id="clip0_579_1961">
<rect width="24" height="24" fill="white" transform="translate(0 0.866455)"/>
</clipPath>
</defs>
</svg>
