<svg width="24" height="24" viewBox="0 0 24 24" fill="none" xmlns="http://www.w3.org/2000/svg">
<path d="M8.42763 3.42728C7.16188 3.425 5.94236 3.90283 5.01508 4.76438C4.08779 5.62592 3.52174 6.80708 3.43111 8.06958C3.34048 9.33208 3.73201 10.582 4.52672 11.5671C5.32144 12.5523 6.4602 13.1994 7.71329 13.378V14.8181C6.5103 14.6833 5.36979 14.2116 4.42301 13.4574C3.47622 12.7031 2.76163 11.6968 2.36146 10.5543C1.96128 9.41187 1.89178 8.17964 2.16096 6.99943C2.43014 5.81922 3.02705 4.73898 3.88302 3.88302C4.73898 3.02705 5.81922 2.43014 6.99943 2.16096C8.17964 1.89178 9.41187 1.96128 10.5543 2.36146C11.6968 2.76163 12.7031 3.47622 13.4574 4.42301C14.2116 5.36979 14.6833 6.5103 14.8181 7.71329H13.378C13.2062 6.523 12.6111 5.43449 11.7019 4.6473C10.7927 3.86011 9.63026 3.42697 8.42763 3.42728V3.42728ZM12.7136 9.14196C11.7664 9.14196 10.8579 9.51826 10.1881 10.1881C9.51826 10.8579 9.14196 11.7664 9.14196 12.7136V18.4283C9.14196 19.3756 9.51826 20.2841 10.1881 20.9539C10.8579 21.6237 11.7664 22 12.7136 22H18.4283C19.3756 22 20.2841 21.6237 20.9539 20.9539C21.6237 20.2841 22 19.3756 22 18.4283V12.7136C22 11.7664 21.6237 10.8579 20.9539 10.1881C20.2841 9.51826 19.3756 9.14196 18.4283 9.14196H12.7136ZM10.5706 12.7136C10.5706 12.1453 10.7964 11.6002 11.1983 11.1983C11.6002 10.7964 12.1453 10.5706 12.7136 10.5706H18.4283C18.9967 10.5706 19.5418 10.7964 19.9437 11.1983C20.3455 11.6002 20.5713 12.1453 20.5713 12.7136V18.4283C20.5713 18.9967 20.3455 19.5418 19.9437 19.9437C19.5418 20.3455 18.9967 20.5713 18.4283 20.5713H12.7136C12.1453 20.5713 11.6002 20.3455 11.1983 19.9437C10.7964 19.5418 10.5706 18.9967 10.5706 18.4283V12.7136Z" fill="#1A1A1A"/>
</svg>
