<svg width="24" height="24" viewBox="0 0 24 24" fill="none" xmlns="http://www.w3.org/2000/svg">
<path fill-rule="evenodd" clip-rule="evenodd" d="M12.3036 4.58934C12.321 4.60264 12.3377 4.61723 12.3536 4.63311L18.7175 10.9971C18.9128 11.1923 18.9128 11.5089 18.7175 11.7042L12.3536 18.0681C12.1583 18.2634 11.8417 18.2634 11.6464 18.0681L5.28249 11.7042C5.08722 11.5089 5.08722 11.1923 5.28249 10.9971L11.2898 4.98974L9.93897 3.63896C9.7437 3.4437 9.7437 3.12712 9.93895 2.93185C10.1342 2.73659 10.4508 2.73658 10.6461 2.93184L12.3036 4.58934ZM11.9969 5.69683L6.34315 11.3506H17.651L11.9969 5.69683ZM4.5 20.2147C4.22386 20.2147 4 20.4385 4 20.7147C4 20.9908 4.22386 21.2147 4.5 21.2147H19.5C19.7761 21.2147 20 20.9908 20 20.7147C20 20.4385 19.7761 20.2147 19.5 20.2147H4.5Z" fill="#1A1A1A"/>
</svg>
