<svg width="24" height="24" viewBox="0 0 24 24" fill="none" xmlns="http://www.w3.org/2000/svg">
<path fill-rule="evenodd" clip-rule="evenodd" d="M12.3036 4.58934C12.321 4.60264 12.3377 4.61723 12.3536 4.63311L18.7175 10.9971C18.9128 11.1923 18.9128 11.5089 18.7175 11.7042L12.3536 18.0681C12.1583 18.2634 11.8417 18.2634 11.6464 18.0681L5.28249 11.7042C5.08722 11.5089 5.08722 11.1923 5.28249 10.9971L11.2898 4.98974L9.93897 3.63896C9.7437 3.4437 9.7437 3.12712 9.93895 2.93186C10.1342 2.73659 10.4508 2.73658 10.6461 2.93184L12.3036 4.58934ZM11.9969 5.69683L6.34315 11.3506H17.651L11.9969 5.69683Z" fill="#1A1A1A"/>
<path d="M4.5 20.2147C4.22386 20.2147 4 20.4385 4 20.7147C4 20.9908 4.22386 21.2147 4.5 21.2147H19.5C19.7761 21.2147 20 20.9908 20 20.7147C20 20.4385 19.7761 20.2147 19.5 20.2147H4.5Z" fill="#1A1A1A"/>
<path fill-rule="evenodd" clip-rule="evenodd" d="M11.9969 5.69683L6.34315 11.3506H17.651L11.9969 5.69683ZM5.28249 11.7042C5.21809 11.6398 5.17493 11.5622 5.15301 11.4801C5.10846 11.3133 5.15162 11.1279 5.28249 10.9971L11.2898 4.98974L9.93897 3.63896C9.7437 3.4437 9.7437 3.12712 9.93895 2.93186C10.1342 2.73659 10.4508 2.73658 10.6461 2.93184L12.3036 4.58934C12.321 4.60264 12.3377 4.61723 12.3536 4.63311L18.7175 10.9971C18.8496 11.1291 18.8923 11.3167 18.8457 11.4847C18.8235 11.5651 18.7807 11.641 18.7175 11.7042L12.3536 18.0681C12.1583 18.2634 11.8417 18.2634 11.6464 18.0681L5.28249 11.7042ZM19.3642 12.1006C19.3291 12.1473 19.2903 12.192 19.2478 12.2345L12.8839 18.5985C12.3957 19.0866 11.6043 19.0866 11.1161 18.5985L4.75216 12.2345C4.70969 12.192 4.67092 12.1473 4.63584 12.1006H4.53249L4.59306 12.04C4.27151 11.5547 4.32454 10.8943 4.75216 10.4667L10.2291 4.98975L9.40865 4.1693C8.92049 3.68116 8.92047 2.8897 9.40861 2.40154C9.89676 1.91337 10.6882 1.91335 11.1764 2.4015L12.8069 4.03194C12.8334 4.05437 12.8591 4.07799 12.8839 4.10278L19.2478 10.4667C19.6765 10.8954 19.7287 11.5579 19.4046 12.0435L19.4617 12.1006H19.3642ZM15.8403 10.6006L11.9969 6.75748L8.15381 10.6006H15.8403ZM3.25 20.7147C3.25 20.0243 3.80964 19.4647 4.5 19.4647H19.5C20.1904 19.4647 20.75 20.0243 20.75 20.7147C20.75 21.405 20.1904 21.9647 19.5 21.9647H4.5C3.80964 21.9647 3.25 21.405 3.25 20.7147ZM4 20.7147C4 20.4385 4.22386 20.2147 4.5 20.2147H19.5C19.7761 20.2147 20 20.4385 20 20.7147C20 20.9908 19.7761 21.2147 19.5 21.2147H4.5C4.22386 21.2147 4 20.9908 4 20.7147Z" fill="white"/>
</svg>
